G04*
G04 #@! TF.GenerationSoftware,Altium Limited,Altium Designer,24.5.2 (23)*
G04*
G04 Layer_Physical_Order=1*
G04 Layer_Color=37055*
%FSLAX25Y25*%
%MOIN*%
G70*
G04*
G04 #@! TF.SameCoordinates,EA20CDAA-E86A-485A-94B0-CAF5119035BD*
G04*
G04*
G04 #@! TF.FilePolarity,Positive*
G04*
G01*
G75*
%ADD10R,0.05000X0.04000*%
%ADD11C,0.03200*%
%ADD12C,0.06000*%
%ADD13O,0.08661X0.05906*%
%ADD14C,0.05906*%
%ADD15R,0.08661X0.05906*%
%ADD16C,0.07874*%
%ADD17C,0.10000*%
%ADD18C,0.07000*%
%ADD19C,0.20000*%
%ADD20O,0.07000X0.15000*%
%ADD21R,0.07000X0.15000*%
%ADD22R,0.08000X0.06000*%
%ADD23O,0.08000X0.06000*%
G04:AMPARAMS|DCode=24|XSize=160mil|YSize=60mil|CornerRadius=15mil|HoleSize=0mil|Usage=FLASHONLY|Rotation=0.000|XOffset=0mil|YOffset=0mil|HoleType=Round|Shape=RoundedRectangle|*
%AMROUNDEDRECTD24*
21,1,0.16000,0.03000,0,0,0.0*
21,1,0.13000,0.06000,0,0,0.0*
1,1,0.03000,0.06500,-0.01500*
1,1,0.03000,-0.06500,-0.01500*
1,1,0.03000,-0.06500,0.01500*
1,1,0.03000,0.06500,0.01500*
%
%ADD24ROUNDEDRECTD24*%
%ADD25C,0.12000*%
%ADD26R,0.12000X0.12000*%
%ADD27C,0.05000*%
G54D10*
X173000Y258000D02*
D03*
Y266000D02*
D03*
Y250000D02*
D03*
Y242000D02*
D03*
X133000Y70000D02*
D03*
Y78000D02*
D03*
X151000D02*
D03*
Y70000D02*
D03*
X92000Y31000D02*
D03*
Y23000D02*
D03*
X87000Y5000D02*
D03*
Y13000D02*
D03*
X79000Y5000D02*
D03*
Y13000D02*
D03*
X-52000Y191000D02*
D03*
Y199000D02*
D03*
X-61000D02*
D03*
Y191000D02*
D03*
X-70000Y199000D02*
D03*
Y191000D02*
D03*
X-19000Y89000D02*
D03*
Y97000D02*
D03*
X-35000Y167000D02*
D03*
Y159000D02*
D03*
X-37000Y89000D02*
D03*
Y97000D02*
D03*
X143226Y185574D02*
D03*
Y193575D02*
D03*
X151000Y258000D02*
D03*
Y266000D02*
D03*
X162000Y257995D02*
D03*
Y265995D02*
D03*
Y250000D02*
D03*
Y242000D02*
D03*
X140000Y258000D02*
D03*
Y266000D02*
D03*
X151000Y250000D02*
D03*
Y242000D02*
D03*
X140000Y250000D02*
D03*
Y242000D02*
D03*
X139000Y157000D02*
D03*
Y149000D02*
D03*
X115000Y-42000D02*
D03*
Y-50000D02*
D03*
X-103000Y159000D02*
D03*
Y167000D02*
D03*
X148000Y149000D02*
D03*
Y157000D02*
D03*
X-28000Y97000D02*
D03*
Y89000D02*
D03*
X-93000Y159000D02*
D03*
Y167000D02*
D03*
X142000Y78000D02*
D03*
Y70000D02*
D03*
X-26000Y159000D02*
D03*
Y167000D02*
D03*
X157000Y149000D02*
D03*
Y157000D02*
D03*
X-17000Y159000D02*
D03*
Y167000D02*
D03*
X-83000Y159000D02*
D03*
Y167000D02*
D03*
X125000Y-50000D02*
D03*
Y-42000D02*
D03*
G54D11*
X-13000Y71000D02*
X13000D01*
X151000Y266000D02*
X172000D01*
X14000Y84874D02*
Y131000D01*
X11125Y82000D02*
X14000Y84874D01*
X-28000Y82000D02*
X11125D01*
X196000Y195400D02*
Y273000D01*
X182600Y182000D02*
X196000Y195400D01*
X136000Y193000D02*
X143226D01*
X79000Y0D02*
X102000Y-23000D01*
X125000D01*
Y-42000D02*
Y-23000D01*
X23969Y-33969D02*
X24000Y-34000D01*
X23969Y-33969D02*
Y-1969D01*
X23937Y-1937D02*
X23969Y-1969D01*
X140000Y185000D02*
X146000D01*
X132000Y177000D02*
X140000Y185000D01*
X146826Y193175D02*
X158000Y182000D01*
X143625Y193175D02*
X146826D01*
X158000Y182000D02*
X182600D01*
Y90370D02*
Y182000D01*
X143226Y193575D02*
X143625Y193175D01*
X146000Y185000D02*
X157283Y173717D01*
X143226Y193575D02*
X143726D01*
X157283Y173717D02*
X170748D01*
X125000Y184000D02*
X127000D01*
X-102237Y154875D02*
Y158600D01*
X-102637Y159000D02*
X-102237Y158600D01*
X-103000Y159000D02*
X-102637D01*
X-102237Y154875D02*
X-100363Y153000D01*
X-93000D01*
X-83487Y153344D02*
X-83000Y153832D01*
X-93000Y153000D02*
X-83000D01*
X-93000D02*
Y159000D01*
X140000Y266000D02*
X151000D01*
X177400Y69600D02*
Y167065D01*
Y69600D02*
X192000Y55000D01*
X182630Y90370D02*
X196000Y77000D01*
X182600Y90370D02*
X182630D01*
X207970Y65000D02*
X209000D01*
X-9000Y113000D02*
X6000Y128000D01*
X-9000Y94000D02*
Y113000D01*
X173000Y266000D02*
X181000D01*
X173000Y250000D02*
Y258000D01*
X155945Y313055D02*
X196000Y273000D01*
X161100Y237100D02*
Y241600D01*
X107000Y201000D02*
X125000D01*
X161100Y237100D01*
X107000Y193000D02*
X128000D01*
X172956Y242000D02*
X173000D01*
X172556Y241600D02*
X172956Y242000D01*
X128000Y193000D02*
X172556Y237556D01*
Y241600D01*
X127000Y184000D02*
X136000Y193000D01*
X101000Y184000D02*
X108000Y177000D01*
X101000Y184000D02*
Y249000D01*
X108000Y177000D02*
X132000D01*
X161500Y242000D02*
X162000D01*
X161100Y241600D02*
X161500Y242000D01*
X162000Y249600D02*
Y257995D01*
X151100Y240600D02*
X151500Y241000D01*
X151100Y237100D02*
Y240600D01*
X140000Y241000D02*
X140098Y240902D01*
Y235098D02*
Y240902D01*
X151100Y250000D02*
Y251174D01*
X151000Y251274D02*
Y258000D01*
Y251274D02*
X151100Y251174D01*
X87000Y5000D02*
X117000D01*
X-14000Y89000D02*
X-9000Y94000D01*
X-19000Y89000D02*
X-14000D01*
X157000Y157000D02*
Y164000D01*
X107000Y211000D02*
X125000D01*
X151100Y237100D01*
X107000Y231000D02*
X125000D01*
X151000Y70000D02*
X151500D01*
X156156Y65344D01*
X160656D01*
X161000Y65000D01*
X188000Y95000D02*
X198000D01*
X170748Y173717D02*
X177400Y167065D01*
X126000Y221000D02*
X140098Y235098D01*
X107000Y221000D02*
X126000D01*
X159000Y134000D02*
Y142000D01*
X155125D02*
X159000D01*
X107000Y241000D02*
X125000D01*
X106000Y171000D02*
X136000D01*
X139000Y168000D01*
Y157000D02*
Y168000D01*
X148000Y157000D02*
Y164000D01*
X140875Y142000D02*
X146125D01*
X155125D01*
X157000Y143875D02*
Y149000D01*
X155125Y142000D02*
X157000Y143875D01*
X148000D02*
Y149000D01*
X146125Y142000D02*
X148000Y143875D01*
X139000D02*
Y149000D01*
Y143875D02*
X140875Y142000D01*
X-16000Y124000D02*
X1000Y141000D01*
X-60000Y124000D02*
X-16000D01*
X1000Y141000D02*
X13000D01*
X133000Y84000D02*
X151000D01*
X151575D02*
X155000D01*
X151000Y83425D02*
X151575Y84000D01*
X142000Y63000D02*
Y70000D01*
X151000Y78400D02*
Y83425D01*
X141556Y78400D02*
Y82444D01*
X133000Y78000D02*
Y84000D01*
X125000Y70000D02*
X133000D01*
X124750D02*
Y81750D01*
X152699Y92699D02*
X154000Y94000D01*
X96000Y110500D02*
X124750Y81750D01*
X96000Y110500D02*
Y121000D01*
X1000Y45000D02*
X133000D01*
X106000Y161000D02*
X125000D01*
X79000Y0D02*
Y5000D01*
X109000Y64000D02*
Y82000D01*
X101000Y64000D02*
Y82000D01*
X95000Y56000D02*
Y88000D01*
X92000Y31000D02*
Y36000D01*
X88000Y40000D02*
X92000Y36000D01*
X-2000Y24000D02*
X17000D01*
X15613Y34000D02*
X16513Y33100D01*
X17000D01*
X-2000Y34000D02*
X15613D01*
X87900Y18000D02*
X90126D01*
X79900D02*
X87900D01*
X66000Y27160D02*
Y29000D01*
X72000Y18000D02*
X79900D01*
X79500Y13000D02*
X79900Y13400D01*
Y17026D02*
X80875Y18000D01*
X79000Y13000D02*
X79500D01*
X79900Y13400D02*
Y17026D01*
X87000Y13000D02*
X87500D01*
X87900Y13400D01*
Y17500D01*
X88400Y18000D01*
X92000Y19874D02*
Y23000D01*
X90126Y18000D02*
X92000Y19874D01*
X115000Y-50000D02*
X125000D01*
X-1000Y14000D02*
X12000D01*
X-17000Y167000D02*
Y173000D01*
X1000D01*
X26482Y81518D02*
X27000Y81000D01*
X-104000Y54465D02*
X-69465Y89000D01*
X-60000D01*
X-77000Y167000D02*
X-60000D01*
X-83000D02*
X-77000D01*
X-77400Y192100D02*
X-70500Y199000D01*
X-77400Y167400D02*
Y192100D01*
Y167400D02*
X-77000Y167000D01*
X-70500Y199000D02*
X-70000D01*
X-60000Y167000D02*
X-35000D01*
X-60000Y124000D02*
Y167000D01*
Y89000D02*
Y124000D01*
Y89000D02*
X-37000D01*
X-52000Y185000D02*
Y191000D01*
X-61000Y185000D02*
X-52000D01*
X-70000D02*
X-61000D01*
Y191000D01*
X-70000Y185000D02*
Y191000D01*
X-61000Y199000D02*
Y206000D01*
X-70000Y191000D02*
X-69500D01*
X-69100Y190600D01*
X-52000Y199000D02*
X7000D01*
X-103000Y183000D02*
X-72000Y214000D01*
X-103000Y167000D02*
Y183000D01*
X-72000Y214000D02*
X4000D01*
X11000Y207000D01*
X-28000Y226000D02*
X-15000D01*
X-83000Y153832D02*
Y159000D01*
X-93000Y167000D02*
Y174000D01*
X75000Y486000D02*
X75125Y485875D01*
X82126D01*
X84000Y484000D01*
Y456000D02*
Y484000D01*
X-35000Y486000D02*
X16000D01*
X-59000D02*
X-35000D01*
X-50000Y108000D02*
X-48487D01*
X-42487Y102000D02*
X-42000D01*
X-37000D01*
Y97000D02*
Y102000D01*
X-28000D01*
Y97000D02*
Y102000D01*
Y97000D02*
X-27519D01*
X-27119Y97400D01*
X-28000Y82000D02*
Y89000D01*
Y102000D02*
X-20875D01*
X-36500Y97000D02*
X-36100Y97400D01*
X-37000Y97000D02*
X-36500D01*
X-19000D02*
Y100126D01*
X-20875Y102000D02*
X-19000Y100126D01*
X-26000Y151000D02*
X-18875D01*
X-17000Y152875D02*
Y159000D01*
X-18875Y151000D02*
X-17000Y152875D01*
X-35000Y153000D02*
Y159000D01*
X-37000Y151000D02*
X-26000D01*
Y159000D01*
Y167000D02*
Y173000D01*
X-36000Y297000D02*
X55000D01*
X-8000Y318000D02*
X47000D01*
X-63000Y420600D02*
X-21000D01*
X214000Y137866D02*
X214079Y137945D01*
X104000Y435000D02*
X155945Y383055D01*
Y316000D02*
Y383055D01*
X104000Y435000D02*
Y456000D01*
X-21000Y420600D02*
X17600D01*
X37000Y440000D02*
Y456000D01*
X17600Y420600D02*
X37000Y440000D01*
X141644Y69644D02*
X142000Y70000D01*
X204236Y137945D02*
X204905Y137276D01*
X140000Y250000D02*
Y258000D01*
X155945Y313055D02*
Y316000D01*
X16000Y457000D02*
Y486000D01*
X126000Y315000D02*
X127000Y316000D01*
X155945D01*
X-21000Y397000D02*
Y420600D01*
X16000Y457000D02*
X17000Y456000D01*
X-35000Y457000D02*
Y486000D01*
X115000Y-42000D02*
Y-34000D01*
X87000Y171000D02*
X87732D01*
X157000Y157000D02*
X157500D01*
X-94000Y24000D02*
X-89000D01*
X26268Y121000D02*
X27000D01*
X-94000Y14000D02*
X-89000D01*
X-94000Y4000D02*
X-89000D01*
X87000Y121000D02*
X87518Y121518D01*
G54D12*
X-108000Y430000D02*
D03*
Y310000D02*
D03*
Y320000D02*
D03*
Y330000D02*
D03*
Y340000D02*
D03*
Y350000D02*
D03*
Y360000D02*
D03*
Y370000D02*
D03*
Y380000D02*
D03*
Y390000D02*
D03*
Y400000D02*
D03*
Y410000D02*
D03*
Y420000D02*
D03*
Y440000D02*
D03*
X-130000Y214000D02*
D03*
Y233685D02*
D03*
Y223843D02*
D03*
G54D13*
X87000Y51000D02*
D03*
Y61000D02*
D03*
Y71000D02*
D03*
Y81000D02*
D03*
Y91000D02*
D03*
Y101000D02*
D03*
Y111000D02*
D03*
Y121000D02*
D03*
Y131000D02*
D03*
Y141000D02*
D03*
Y151000D02*
D03*
Y161000D02*
D03*
Y171000D02*
D03*
Y181000D02*
D03*
Y191000D02*
D03*
Y201000D02*
D03*
Y211000D02*
D03*
Y221000D02*
D03*
Y231000D02*
D03*
Y241000D02*
D03*
X27000Y51000D02*
D03*
Y61000D02*
D03*
Y71000D02*
D03*
Y91000D02*
D03*
Y101000D02*
D03*
Y111000D02*
D03*
Y121000D02*
D03*
Y131000D02*
D03*
Y141000D02*
D03*
Y151000D02*
D03*
Y161000D02*
D03*
Y171000D02*
D03*
Y181000D02*
D03*
Y191000D02*
D03*
Y201000D02*
D03*
Y211000D02*
D03*
Y221000D02*
D03*
Y231000D02*
D03*
G54D14*
Y81000D02*
D03*
G54D15*
Y241000D02*
D03*
G54D16*
X204236Y137945D02*
D03*
X214079Y256055D02*
D03*
Y137945D02*
D03*
X233764D02*
D03*
X223921D02*
D03*
X233764Y256055D02*
D03*
G54D17*
X181000Y-18000D02*
D03*
Y22000D02*
D03*
X154000Y94000D02*
D03*
Y124000D02*
D03*
X134000D02*
D03*
Y94000D02*
D03*
X66000Y-1000D02*
D03*
Y29000D02*
D03*
X46000D02*
D03*
Y-1000D02*
D03*
X-50000Y78000D02*
D03*
Y108000D02*
D03*
X-70000D02*
D03*
Y78000D02*
D03*
X-103000Y112000D02*
D03*
Y142000D02*
D03*
X-83000D02*
D03*
Y112000D02*
D03*
X-70000Y145000D02*
D03*
Y175000D02*
D03*
X-50000D02*
D03*
Y145000D02*
D03*
X-17000Y142000D02*
D03*
Y112000D02*
D03*
X-37000D02*
D03*
Y142000D02*
D03*
X170000Y134000D02*
D03*
Y164000D02*
D03*
X190000D02*
D03*
Y134000D02*
D03*
X-21000Y377000D02*
D03*
Y397000D02*
D03*
X106000Y315000D02*
D03*
X126000D02*
D03*
X-35000Y457000D02*
D03*
Y437000D02*
D03*
G54D18*
X54000Y486000D02*
D03*
X44000D02*
D03*
G54D19*
X94039Y386020D02*
D03*
X27039D02*
D03*
G54D20*
X104000Y456000D02*
D03*
X94000D02*
D03*
X37000D02*
D03*
X27000D02*
D03*
G54D21*
X84000D02*
D03*
X17000D02*
D03*
G54D22*
X209000Y55000D02*
D03*
G54D23*
Y65000D02*
D03*
Y75000D02*
D03*
Y85000D02*
D03*
Y95000D02*
D03*
Y105000D02*
D03*
G54D24*
X-89000Y44000D02*
D03*
Y34000D02*
D03*
Y24000D02*
D03*
Y14000D02*
D03*
Y4000D02*
D03*
Y-6000D02*
D03*
Y-16000D02*
D03*
Y-26000D02*
D03*
X-19000D02*
D03*
Y-16000D02*
D03*
Y-6000D02*
D03*
Y4000D02*
D03*
Y14000D02*
D03*
Y24000D02*
D03*
Y34000D02*
D03*
Y44000D02*
D03*
G54D25*
X64000Y-42000D02*
D03*
G54D26*
X44000D02*
D03*
G54D27*
X13000Y71000D02*
D03*
X14000Y131000D02*
D03*
X125000Y-23000D02*
D03*
X24000Y-34000D02*
D03*
X158000Y182000D02*
D03*
X125000Y184000D02*
D03*
X23937Y-1937D02*
D03*
X192000Y55000D02*
D03*
X6000Y128000D02*
D03*
X181000Y266000D02*
D03*
X107000Y193000D02*
D03*
X117000Y5000D02*
D03*
X157000Y164000D02*
D03*
X125000Y231000D02*
D03*
X161000Y65000D02*
D03*
X196000Y77000D02*
D03*
X188000Y95000D02*
D03*
X198000D02*
D03*
X107000Y201000D02*
D03*
X101000Y249000D02*
D03*
X159000Y134000D02*
D03*
X125000Y241000D02*
D03*
X107000Y231000D02*
D03*
Y241000D02*
D03*
Y211000D02*
D03*
Y221000D02*
D03*
X106000Y171000D02*
D03*
X155000Y84000D02*
D03*
X142000Y63000D02*
D03*
X133000Y45000D02*
D03*
X125000Y161000D02*
D03*
X106000D02*
D03*
X96000Y121000D02*
D03*
X109000Y63000D02*
D03*
Y82000D02*
D03*
X101000D02*
D03*
Y63000D02*
D03*
X88000Y40000D02*
D03*
X95000Y56000D02*
D03*
Y88000D02*
D03*
X17000Y24000D02*
D03*
X-2000D02*
D03*
X17000Y33100D02*
D03*
X72000Y18000D02*
D03*
X1000Y45000D02*
D03*
X-2000Y34000D02*
D03*
X-1000Y14000D02*
D03*
X12000D02*
D03*
X-13000Y71000D02*
D03*
X0Y173000D02*
D03*
X13000Y141000D02*
D03*
X-104000Y54465D02*
D03*
X-83000Y153000D02*
D03*
X-70000Y185000D02*
D03*
X-61000Y206000D02*
D03*
X9000Y199000D02*
D03*
X-15000Y226000D02*
D03*
X11000Y207000D02*
D03*
X-93000Y174000D02*
D03*
X75000Y486000D02*
D03*
X-59000D02*
D03*
X-42000Y102000D02*
D03*
X-28000Y82000D02*
D03*
X-37000Y151000D02*
D03*
X-26000Y173000D02*
D03*
X55000Y297000D02*
D03*
X-28000Y226000D02*
D03*
X-36000Y297000D02*
D03*
X47000Y318000D02*
D03*
X-8000D02*
D03*
X16000Y486000D02*
D03*
X-95000Y238000D02*
D03*
Y251000D02*
D03*
X-63000Y421000D02*
D03*
X148000Y164000D02*
D03*
X115000Y-34000D02*
D03*
M02*
