G04*
G04 #@! TF.GenerationSoftware,Altium Limited,Altium Designer,24.5.2 (23)*
G04*
G04 Layer_Physical_Order=2*
G04 Layer_Color=1265191*
%FSLAX25Y25*%
%MOIN*%
G70*
G04*
G04 #@! TF.SameCoordinates,EA20CDAA-E86A-485A-94B0-CAF5119035BD*
G04*
G04*
G04 #@! TF.FilePolarity,Positive*
G04*
G01*
G75*
%ADD10R,0.05000X0.04000*%
%ADD11C,0.03200*%
%ADD12C,0.06000*%
%ADD13O,0.08661X0.05906*%
%ADD14C,0.05906*%
%ADD15R,0.08661X0.05906*%
%ADD16C,0.07874*%
%ADD17C,0.10000*%
%ADD18C,0.07000*%
%ADD19C,0.20000*%
%ADD20O,0.07000X0.15000*%
%ADD21R,0.07000X0.15000*%
%ADD22R,0.08000X0.06000*%
%ADD23O,0.08000X0.06000*%
G04:AMPARAMS|DCode=24|XSize=160mil|YSize=60mil|CornerRadius=15mil|HoleSize=0mil|Usage=FLASHONLY|Rotation=0.000|XOffset=0mil|YOffset=0mil|HoleType=Round|Shape=RoundedRectangle|*
%AMROUNDEDRECTD24*
21,1,0.16000,0.03000,0,0,0.0*
21,1,0.13000,0.06000,0,0,0.0*
1,1,0.03000,0.06500,-0.01500*
1,1,0.03000,-0.06500,-0.01500*
1,1,0.03000,-0.06500,0.01500*
1,1,0.03000,0.06500,0.01500*
%
%ADD24ROUNDEDRECTD24*%
%ADD25C,0.12000*%
%ADD26R,0.12000X0.12000*%
%ADD27C,0.05000*%
G36*
X247000Y471000D02*
Y-14000D01*
X194000Y-67000D01*
X-104000D01*
X-147000Y-24000D01*
Y453000D01*
X-105000Y495000D01*
X223000D01*
X247000Y471000D01*
D02*
G37*
%LPC*%
G36*
X54724Y491500D02*
X53276D01*
X51877Y491125D01*
X50623Y490401D01*
X49599Y489377D01*
X49250Y488773D01*
X48750D01*
X48401Y489377D01*
X47377Y490401D01*
X46123Y491125D01*
X44724Y491500D01*
X43276D01*
X41877Y491125D01*
X40623Y490401D01*
X39853Y489631D01*
X18711D01*
X17737Y490193D01*
X16592Y490500D01*
X15408D01*
X14263Y490193D01*
X13237Y489601D01*
X12399Y488763D01*
X11807Y487737D01*
X11500Y486592D01*
Y485408D01*
X11807Y484263D01*
X12399Y483237D01*
X13237Y482399D01*
X14263Y481807D01*
X15408Y481500D01*
X16592D01*
X17737Y481807D01*
X18711Y482369D01*
X39853D01*
X40623Y481599D01*
X41877Y480875D01*
X43276Y480500D01*
X44724D01*
X46123Y480875D01*
X47377Y481599D01*
X48401Y482623D01*
X48750Y483227D01*
X49250D01*
X49599Y482623D01*
X50623Y481599D01*
X51877Y480875D01*
X53276Y480500D01*
X54724D01*
X56123Y480875D01*
X57377Y481599D01*
X58147Y482369D01*
X72289D01*
X73263Y481807D01*
X74408Y481500D01*
X75592D01*
X76737Y481807D01*
X77763Y482399D01*
X78601Y483237D01*
X79193Y484263D01*
X79500Y485408D01*
Y486592D01*
X79193Y487737D01*
X78601Y488763D01*
X77763Y489601D01*
X76737Y490193D01*
X75592Y490500D01*
X74408D01*
X73263Y490193D01*
X72289Y489631D01*
X58147D01*
X57377Y490401D01*
X56123Y491125D01*
X54724Y491500D01*
D02*
G37*
G36*
X-58408Y490500D02*
X-59592D01*
X-60737Y490193D01*
X-61711Y489631D01*
X-94000D01*
X-94940Y489507D01*
X-95815Y489145D01*
X-96568Y488568D01*
X-141568Y443568D01*
X-142145Y442815D01*
X-142507Y441940D01*
X-142631Y441000D01*
Y242685D01*
X-142507Y241745D01*
X-142145Y240869D01*
X-141568Y240118D01*
X-135000Y233550D01*
Y233027D01*
X-134659Y231755D01*
X-134001Y230615D01*
X-133070Y229684D01*
X-131930Y229026D01*
X-131885Y229014D01*
Y228514D01*
X-131930Y228502D01*
X-133070Y227843D01*
X-134001Y226913D01*
X-134659Y225772D01*
X-135000Y224501D01*
Y223978D01*
X-139568Y219410D01*
X-140145Y218658D01*
X-140507Y217782D01*
X-140631Y216843D01*
Y187000D01*
X-140631Y187000D01*
X-140631Y-22000D01*
X-140507Y-22940D01*
X-140145Y-23816D01*
X-139568Y-24568D01*
X-102568Y-61568D01*
X-101815Y-62145D01*
X-100940Y-62507D01*
X-100000Y-62631D01*
X-100000Y-62631D01*
X12000D01*
X12940Y-62507D01*
X13815Y-62145D01*
X14568Y-61568D01*
X30504Y-45631D01*
X36000D01*
Y-50000D01*
X52000D01*
Y-34000D01*
X36000D01*
Y-38369D01*
X29000D01*
X28060Y-38493D01*
X27185Y-38855D01*
X26432Y-39432D01*
X10496Y-55369D01*
X-98496D01*
X-133369Y-20496D01*
X-133369Y187000D01*
X-133369Y187000D01*
Y209630D01*
X-132869Y209883D01*
X-131930Y209341D01*
X-130658Y209000D01*
X-129342D01*
X-128070Y209341D01*
X-126930Y209999D01*
X-125999Y210930D01*
X-125341Y212070D01*
X-125000Y213342D01*
Y214658D01*
X-125341Y215930D01*
X-125999Y217070D01*
X-126930Y218001D01*
X-128070Y218659D01*
X-128115Y218671D01*
Y219171D01*
X-128070Y219183D01*
X-126930Y219842D01*
X-125999Y220772D01*
X-125341Y221913D01*
X-125000Y223184D01*
Y224501D01*
X-125341Y225772D01*
X-125999Y226913D01*
X-126930Y227843D01*
X-128070Y228502D01*
X-128115Y228514D01*
Y229014D01*
X-128070Y229026D01*
X-126930Y229684D01*
X-125999Y230615D01*
X-125341Y231755D01*
X-125000Y233027D01*
Y234343D01*
X-125341Y235615D01*
X-125999Y236755D01*
X-126930Y237686D01*
X-128070Y238344D01*
X-129342Y238685D01*
X-129865D01*
X-135369Y244189D01*
Y439496D01*
X-92496Y482369D01*
X-61711D01*
X-60737Y481807D01*
X-59592Y481500D01*
X-58408D01*
X-57263Y481807D01*
X-56237Y482399D01*
X-55399Y483237D01*
X-54807Y484263D01*
X-54500Y485408D01*
Y486592D01*
X-54807Y487737D01*
X-55399Y488763D01*
X-56237Y489601D01*
X-57263Y490193D01*
X-58408Y490500D01*
D02*
G37*
G36*
X104000Y465548D02*
X102564Y465358D01*
X101226Y464804D01*
X100077Y463923D01*
X99196Y462774D01*
X98729Y461648D01*
X98188D01*
X97931Y462269D01*
X97209Y463209D01*
X96269Y463931D01*
X95200Y464374D01*
Y456000D01*
Y447626D01*
X96269Y448069D01*
X97209Y448791D01*
X97931Y449731D01*
X98188Y450352D01*
X98729D01*
X99196Y449226D01*
X100077Y448077D01*
X101226Y447196D01*
X102564Y446642D01*
X104000Y446453D01*
X105436Y446642D01*
X106774Y447196D01*
X107923Y448077D01*
X108804Y449226D01*
X109358Y450564D01*
X109547Y452000D01*
Y460000D01*
X109358Y461436D01*
X108804Y462774D01*
X107923Y463923D01*
X106774Y464804D01*
X105436Y465358D01*
X104000Y465548D01*
D02*
G37*
G36*
X37000D02*
X35564Y465358D01*
X34226Y464804D01*
X33077Y463923D01*
X32196Y462774D01*
X31729Y461648D01*
X31188D01*
X30931Y462269D01*
X30209Y463209D01*
X29269Y463931D01*
X28200Y464374D01*
Y456000D01*
Y447626D01*
X29269Y448069D01*
X30209Y448791D01*
X30931Y449731D01*
X31188Y450352D01*
X31729D01*
X32196Y449226D01*
X33077Y448077D01*
X34226Y447196D01*
X35564Y446642D01*
X37000Y446453D01*
X38436Y446642D01*
X39774Y447196D01*
X40923Y448077D01*
X41804Y449226D01*
X42358Y450564D01*
X42548Y452000D01*
Y460000D01*
X42358Y461436D01*
X41804Y462774D01*
X40923Y463923D01*
X39774Y464804D01*
X38436Y465358D01*
X37000Y465548D01*
D02*
G37*
G36*
X-34311Y464000D02*
X-35689D01*
X-37042Y463731D01*
X-38316Y463203D01*
X-39462Y462437D01*
X-40437Y461462D01*
X-41203Y460316D01*
X-41731Y459042D01*
X-42000Y457689D01*
Y456311D01*
X-41731Y454958D01*
X-41203Y453684D01*
X-40437Y452538D01*
X-39462Y451563D01*
X-38316Y450797D01*
X-37042Y450269D01*
X-35689Y450000D01*
X-34311D01*
X-32958Y450269D01*
X-31684Y450797D01*
X-30538Y451563D01*
X-29563Y452538D01*
X-28797Y453684D01*
X-28269Y454958D01*
X-28000Y456311D01*
Y457689D01*
X-28269Y459042D01*
X-28797Y460316D01*
X-29563Y461462D01*
X-30538Y462437D01*
X-31684Y463203D01*
X-32958Y463731D01*
X-34311Y464000D01*
D02*
G37*
G36*
X89500Y465500D02*
X78500D01*
Y446500D01*
X89500D01*
Y449798D01*
X90000Y449898D01*
X90069Y449731D01*
X90790Y448791D01*
X91731Y448069D01*
X92800Y447626D01*
Y456000D01*
Y464374D01*
X91731Y463931D01*
X90790Y463209D01*
X90069Y462269D01*
X90000Y462102D01*
X89500Y462202D01*
Y465500D01*
D02*
G37*
G36*
X22500D02*
X11500D01*
Y446500D01*
X22500D01*
Y449798D01*
X23000Y449898D01*
X23069Y449731D01*
X23791Y448791D01*
X24731Y448069D01*
X25800Y447626D01*
Y456000D01*
Y464374D01*
X24731Y463931D01*
X23791Y463209D01*
X23069Y462269D01*
X23000Y462102D01*
X22500Y462202D01*
Y465500D01*
D02*
G37*
G36*
X-33800Y442879D02*
Y438200D01*
X-29121D01*
X-29231Y438750D01*
X-29683Y439842D01*
X-30340Y440825D01*
X-31175Y441660D01*
X-32158Y442317D01*
X-33250Y442769D01*
X-33800Y442879D01*
D02*
G37*
G36*
X-36200D02*
X-36750Y442769D01*
X-37842Y442317D01*
X-38825Y441660D01*
X-39661Y440825D01*
X-40317Y439842D01*
X-40769Y438750D01*
X-40879Y438200D01*
X-36200D01*
Y442879D01*
D02*
G37*
G36*
Y435800D02*
X-40879D01*
X-40769Y435250D01*
X-40317Y434158D01*
X-39661Y433175D01*
X-38825Y432339D01*
X-37842Y431683D01*
X-36750Y431231D01*
X-36200Y431121D01*
Y435800D01*
D02*
G37*
G36*
X-29121D02*
X-33800D01*
Y431121D01*
X-33250Y431231D01*
X-32158Y431683D01*
X-31175Y432339D01*
X-30340Y433175D01*
X-29683Y434158D01*
X-29231Y435250D01*
X-29121Y435800D01*
D02*
G37*
G36*
X-109200Y428800D02*
X-111820D01*
X-111727Y428456D01*
X-111201Y427544D01*
X-110456Y426799D01*
X-109544Y426273D01*
X-109200Y426180D01*
Y428800D01*
D02*
G37*
G36*
X-107342Y445000D02*
X-108658D01*
X-109930Y444659D01*
X-111070Y444001D01*
X-112001Y443070D01*
X-112659Y441930D01*
X-113000Y440658D01*
Y439342D01*
X-112659Y438070D01*
X-112001Y436930D01*
X-111070Y435999D01*
X-109930Y435341D01*
X-108658Y435000D01*
X-108135D01*
X-107635Y434500D01*
X-107842Y434000D01*
X-108527D01*
X-109544Y433727D01*
X-110456Y433201D01*
X-111201Y432456D01*
X-111727Y431544D01*
X-111820Y431200D01*
X-108000D01*
Y430000D01*
X-106800D01*
Y426180D01*
X-106456Y426273D01*
X-105544Y426799D01*
X-104799Y427544D01*
X-104273Y428456D01*
X-104000Y429473D01*
Y430158D01*
X-103500Y430365D01*
X-91568Y418432D01*
X-90816Y417855D01*
X-89940Y417493D01*
X-89000Y417369D01*
X-89000Y417369D01*
X-65711D01*
X-64737Y416807D01*
X-63592Y416500D01*
X-62408D01*
X-61263Y416807D01*
X-60237Y417399D01*
X-59399Y418237D01*
X-58807Y419263D01*
X-58500Y420408D01*
Y421592D01*
X-58807Y422737D01*
X-59399Y423763D01*
X-60237Y424601D01*
X-61263Y425193D01*
X-62408Y425500D01*
X-63592D01*
X-64737Y425193D01*
X-65711Y424631D01*
X-87496D01*
X-103000Y440135D01*
Y440658D01*
X-103341Y441930D01*
X-103999Y443070D01*
X-104930Y444001D01*
X-106070Y444659D01*
X-107342Y445000D01*
D02*
G37*
G36*
X-20311Y404000D02*
X-21689D01*
X-23042Y403731D01*
X-24316Y403203D01*
X-25462Y402437D01*
X-26437Y401462D01*
X-27203Y400316D01*
X-27731Y399042D01*
X-28000Y397689D01*
Y396311D01*
X-27731Y394958D01*
X-27203Y393684D01*
X-26437Y392538D01*
X-25462Y391563D01*
X-24316Y390797D01*
X-23042Y390269D01*
X-21689Y390000D01*
X-20311D01*
X-18958Y390269D01*
X-17684Y390797D01*
X-16538Y391563D01*
X-15563Y392538D01*
X-14797Y393684D01*
X-14269Y394958D01*
X-14000Y396311D01*
Y397689D01*
X-14269Y399042D01*
X-14797Y400316D01*
X-15563Y401462D01*
X-16538Y402437D01*
X-17684Y403203D01*
X-18958Y403731D01*
X-20311Y404000D01*
D02*
G37*
G36*
X-19800Y382879D02*
Y378200D01*
X-15121D01*
X-15231Y378750D01*
X-15683Y379842D01*
X-16340Y380825D01*
X-17175Y381661D01*
X-18158Y382317D01*
X-19250Y382769D01*
X-19800Y382879D01*
D02*
G37*
G36*
X-22200D02*
X-22750Y382769D01*
X-23842Y382317D01*
X-24825Y381661D01*
X-25660Y380825D01*
X-26317Y379842D01*
X-26769Y378750D01*
X-26879Y378200D01*
X-22200D01*
Y382879D01*
D02*
G37*
G36*
X94984Y398020D02*
X93095D01*
X91229Y397724D01*
X89433Y397141D01*
X87750Y396283D01*
X86222Y395173D01*
X84886Y393837D01*
X83776Y392309D01*
X82919Y390626D01*
X82335Y388830D01*
X82039Y386964D01*
Y385075D01*
X82335Y383210D01*
X82919Y381413D01*
X83776Y379730D01*
X84886Y378202D01*
X86222Y376867D01*
X87750Y375756D01*
X89433Y374899D01*
X91229Y374315D01*
X93095Y374020D01*
X94984D01*
X96849Y374315D01*
X98646Y374899D01*
X100329Y375756D01*
X101857Y376867D01*
X103192Y378202D01*
X104303Y379730D01*
X105160Y381413D01*
X105744Y383210D01*
X106039Y385075D01*
Y386964D01*
X105744Y388830D01*
X105160Y390626D01*
X104303Y392309D01*
X103192Y393837D01*
X101857Y395173D01*
X100329Y396283D01*
X98646Y397141D01*
X96849Y397724D01*
X94984Y398020D01*
D02*
G37*
G36*
X27984D02*
X26095D01*
X24229Y397724D01*
X22433Y397141D01*
X20750Y396283D01*
X19222Y395173D01*
X17886Y393837D01*
X16776Y392309D01*
X15919Y390626D01*
X15335Y388830D01*
X15039Y386964D01*
Y385075D01*
X15335Y383210D01*
X15919Y381413D01*
X16776Y379730D01*
X17886Y378202D01*
X19222Y376867D01*
X20750Y375756D01*
X22433Y374899D01*
X24229Y374315D01*
X26095Y374020D01*
X27984D01*
X29849Y374315D01*
X31646Y374899D01*
X33329Y375756D01*
X34857Y376867D01*
X36193Y378202D01*
X37303Y379730D01*
X38160Y381413D01*
X38744Y383210D01*
X39039Y385075D01*
Y386964D01*
X38744Y388830D01*
X38160Y390626D01*
X37303Y392309D01*
X36193Y393837D01*
X34857Y395173D01*
X33329Y396283D01*
X31646Y397141D01*
X29849Y397724D01*
X27984Y398020D01*
D02*
G37*
G36*
X-22200Y375800D02*
X-26879D01*
X-26769Y375250D01*
X-26317Y374158D01*
X-25660Y373175D01*
X-24825Y372340D01*
X-23842Y371683D01*
X-22750Y371231D01*
X-22200Y371121D01*
Y375800D01*
D02*
G37*
G36*
X-15121D02*
X-19800D01*
Y371121D01*
X-19250Y371231D01*
X-18158Y371683D01*
X-17175Y372340D01*
X-16340Y373175D01*
X-15683Y374158D01*
X-15231Y375250D01*
X-15121Y375800D01*
D02*
G37*
G36*
X107200Y320879D02*
Y316200D01*
X111879D01*
X111769Y316750D01*
X111317Y317842D01*
X110661Y318825D01*
X109825Y319660D01*
X108842Y320317D01*
X107750Y320769D01*
X107200Y320879D01*
D02*
G37*
G36*
X104800D02*
X104250Y320769D01*
X103158Y320317D01*
X102175Y319660D01*
X101339Y318825D01*
X100683Y317842D01*
X100231Y316750D01*
X100121Y316200D01*
X104800D01*
Y320879D01*
D02*
G37*
G36*
X111879Y313800D02*
X107200D01*
Y309121D01*
X107750Y309231D01*
X108842Y309683D01*
X109825Y310339D01*
X110661Y311175D01*
X111317Y312158D01*
X111769Y313250D01*
X111879Y313800D01*
D02*
G37*
G36*
X104800D02*
X100121D01*
X100231Y313250D01*
X100683Y312158D01*
X101339Y311175D01*
X102175Y310339D01*
X103158Y309683D01*
X104250Y309231D01*
X104800Y309121D01*
Y313800D01*
D02*
G37*
G36*
X126689Y322000D02*
X125311D01*
X123958Y321731D01*
X122684Y321203D01*
X121538Y320437D01*
X120563Y319462D01*
X119797Y318316D01*
X119269Y317042D01*
X119000Y315689D01*
Y314311D01*
X119269Y312958D01*
X119797Y311684D01*
X120563Y310538D01*
X121538Y309563D01*
X122684Y308797D01*
X123958Y308269D01*
X125311Y308000D01*
X126689D01*
X128042Y308269D01*
X129316Y308797D01*
X130462Y309563D01*
X131437Y310538D01*
X132203Y311684D01*
X132731Y312958D01*
X133000Y314311D01*
Y315689D01*
X132731Y317042D01*
X132203Y318316D01*
X131437Y319462D01*
X130462Y320437D01*
X129316Y321203D01*
X128042Y321731D01*
X126689Y322000D01*
D02*
G37*
G36*
X182200Y269302D02*
Y267200D01*
X184302D01*
X184262Y267351D01*
X183801Y268149D01*
X183149Y268801D01*
X182351Y269262D01*
X182200Y269302D01*
D02*
G37*
G36*
X179800D02*
X179649Y269262D01*
X178851Y268801D01*
X178199Y268149D01*
X177738Y267351D01*
X177698Y267200D01*
X179800D01*
Y269302D01*
D02*
G37*
G36*
X184302Y264800D02*
X182200D01*
Y262698D01*
X182351Y262738D01*
X183149Y263199D01*
X183801Y263851D01*
X184262Y264649D01*
X184302Y264800D01*
D02*
G37*
G36*
X179800D02*
X177698D01*
X177738Y264649D01*
X178199Y263851D01*
X178851Y263199D01*
X179649Y262738D01*
X179800Y262698D01*
Y264800D01*
D02*
G37*
G36*
X-93800Y254302D02*
Y252200D01*
X-91698D01*
X-91738Y252351D01*
X-92199Y253149D01*
X-92851Y253801D01*
X-93649Y254261D01*
X-93800Y254302D01*
D02*
G37*
G36*
X-96200D02*
X-96351Y254261D01*
X-97149Y253801D01*
X-97801Y253149D01*
X-98261Y252351D01*
X-98302Y252200D01*
X-96200D01*
Y254302D01*
D02*
G37*
G36*
X234349Y261992D02*
X233179D01*
X232032Y261764D01*
X230951Y261316D01*
X229979Y260667D01*
X229152Y259840D01*
X228502Y258867D01*
X228055Y257787D01*
X227827Y256640D01*
Y255470D01*
X228055Y254323D01*
X228502Y253243D01*
X229152Y252271D01*
X229979Y251444D01*
X230951Y250794D01*
X232032Y250346D01*
X233179Y250118D01*
X234349D01*
X235495Y250346D01*
X236576Y250794D01*
X237548Y251444D01*
X238375Y252271D01*
X239025Y253243D01*
X239473Y254323D01*
X239701Y255470D01*
Y256640D01*
X239473Y257787D01*
X239025Y258867D01*
X238375Y259840D01*
X237548Y260667D01*
X236576Y261316D01*
X235495Y261764D01*
X234349Y261992D01*
D02*
G37*
G36*
X-91698Y249800D02*
X-93800D01*
Y247698D01*
X-93649Y247739D01*
X-92851Y248199D01*
X-92199Y248851D01*
X-91738Y249649D01*
X-91698Y249800D01*
D02*
G37*
G36*
X-96200D02*
X-98302D01*
X-98261Y249649D01*
X-97801Y248851D01*
X-97149Y248199D01*
X-96351Y247739D01*
X-96200Y247698D01*
Y249800D01*
D02*
G37*
G36*
X-93800Y241302D02*
Y239200D01*
X-91698D01*
X-91738Y239351D01*
X-92199Y240149D01*
X-92851Y240801D01*
X-93649Y241262D01*
X-93800Y241302D01*
D02*
G37*
G36*
X-96200D02*
X-96351Y241262D01*
X-97149Y240801D01*
X-97801Y240149D01*
X-98261Y239351D01*
X-98302Y239200D01*
X-96200D01*
Y241302D01*
D02*
G37*
G36*
X-91698Y236800D02*
X-93800D01*
Y234698D01*
X-93649Y234738D01*
X-92851Y235199D01*
X-92199Y235851D01*
X-91738Y236649D01*
X-91698Y236800D01*
D02*
G37*
G36*
X-96200D02*
X-98302D01*
X-98261Y236649D01*
X-97801Y235851D01*
X-97149Y235199D01*
X-96351Y234738D01*
X-96200Y234698D01*
Y236800D01*
D02*
G37*
G36*
X-59800Y209302D02*
Y207200D01*
X-57698D01*
X-57739Y207351D01*
X-58199Y208149D01*
X-58851Y208801D01*
X-59649Y209261D01*
X-59800Y209302D01*
D02*
G37*
G36*
X-62200D02*
X-62351Y209261D01*
X-63149Y208801D01*
X-63801Y208149D01*
X-64262Y207351D01*
X-64302Y207200D01*
X-62200D01*
Y209302D01*
D02*
G37*
G36*
X-57698Y204800D02*
X-59800D01*
Y202698D01*
X-59649Y202738D01*
X-58851Y203199D01*
X-58199Y203851D01*
X-57739Y204649D01*
X-57698Y204800D01*
D02*
G37*
G36*
X-62200D02*
X-64302D01*
X-64262Y204649D01*
X-63801Y203851D01*
X-63149Y203199D01*
X-62351Y202738D01*
X-62200Y202698D01*
Y204800D01*
D02*
G37*
G36*
X-48800Y180879D02*
Y176200D01*
X-44121D01*
X-44231Y176750D01*
X-44683Y177842D01*
X-45340Y178825D01*
X-46175Y179660D01*
X-47158Y180317D01*
X-48250Y180769D01*
X-48800Y180879D01*
D02*
G37*
G36*
X-51200Y180879D02*
X-51750Y180769D01*
X-52842Y180317D01*
X-53825Y179660D01*
X-54660Y178825D01*
X-55317Y177842D01*
X-55769Y176750D01*
X-55879Y176200D01*
X-51200D01*
Y180879D01*
D02*
G37*
G36*
X-91800Y177302D02*
Y175200D01*
X-89698D01*
X-89739Y175351D01*
X-90199Y176149D01*
X-90851Y176801D01*
X-91649Y177261D01*
X-91800Y177302D01*
D02*
G37*
G36*
X-94200D02*
X-94351Y177261D01*
X-95149Y176801D01*
X-95801Y176149D01*
X-96262Y175351D01*
X-96302Y175200D01*
X-94200D01*
Y177302D01*
D02*
G37*
G36*
X-24800Y176302D02*
Y174200D01*
X-22698D01*
X-22738Y174351D01*
X-23199Y175149D01*
X-23851Y175801D01*
X-24649Y176261D01*
X-24800Y176302D01*
D02*
G37*
G36*
X-27200D02*
X-27351Y176261D01*
X-28149Y175801D01*
X-28801Y175149D01*
X-29261Y174351D01*
X-29302Y174200D01*
X-27200D01*
Y176302D01*
D02*
G37*
G36*
X-89698Y172800D02*
X-91800D01*
Y170698D01*
X-91649Y170738D01*
X-90851Y171199D01*
X-90199Y171851D01*
X-89739Y172649D01*
X-89698Y172800D01*
D02*
G37*
G36*
X-94200D02*
X-96302D01*
X-96262Y172649D01*
X-95801Y171851D01*
X-95149Y171199D01*
X-94351Y170738D01*
X-94200Y170698D01*
Y172800D01*
D02*
G37*
G36*
X-22698Y171800D02*
X-24800D01*
Y169698D01*
X-24649Y169738D01*
X-23851Y170199D01*
X-23199Y170851D01*
X-22738Y171649D01*
X-22698Y171800D01*
D02*
G37*
G36*
X-27200D02*
X-29302D01*
X-29261Y171649D01*
X-28801Y170851D01*
X-28149Y170199D01*
X-27351Y169738D01*
X-27200Y169698D01*
Y171800D01*
D02*
G37*
G36*
X-44121Y173800D02*
X-48800D01*
Y169121D01*
X-48250Y169231D01*
X-47158Y169683D01*
X-46175Y170340D01*
X-45340Y171175D01*
X-44683Y172158D01*
X-44231Y173250D01*
X-44121Y173800D01*
D02*
G37*
G36*
X-51200D02*
X-55879D01*
X-55769Y173250D01*
X-55317Y172158D01*
X-54660Y171175D01*
X-53825Y170340D01*
X-52842Y169683D01*
X-51750Y169231D01*
X-51200Y169121D01*
Y173800D01*
D02*
G37*
G36*
X191200Y169879D02*
Y165200D01*
X195879D01*
X195769Y165750D01*
X195317Y166842D01*
X194660Y167825D01*
X193825Y168660D01*
X192842Y169317D01*
X191750Y169769D01*
X191200Y169879D01*
D02*
G37*
G36*
X149200Y167302D02*
Y165200D01*
X151302D01*
X151261Y165351D01*
X150801Y166149D01*
X150149Y166801D01*
X149351Y167262D01*
X149200Y167302D01*
D02*
G37*
G36*
X146800D02*
X146649Y167262D01*
X145851Y166801D01*
X145199Y166149D01*
X144738Y165351D01*
X144698Y165200D01*
X146800D01*
Y167302D01*
D02*
G37*
G36*
X151302Y162800D02*
X149200D01*
Y160698D01*
X149351Y160739D01*
X150149Y161199D01*
X150801Y161851D01*
X151261Y162649D01*
X151302Y162800D01*
D02*
G37*
G36*
X146800D02*
X144698D01*
X144738Y162649D01*
X145199Y161851D01*
X145851Y161199D01*
X146649Y160739D01*
X146800Y160698D01*
Y162800D01*
D02*
G37*
G36*
X195879D02*
X191200D01*
Y158121D01*
X191750Y158231D01*
X192842Y158683D01*
X193825Y159339D01*
X194660Y160175D01*
X195317Y161158D01*
X195769Y162250D01*
X195879Y162800D01*
D02*
G37*
G36*
X-107342Y425000D02*
X-108658D01*
X-109930Y424659D01*
X-111070Y424001D01*
X-112001Y423070D01*
X-112659Y421930D01*
X-113000Y420658D01*
Y419342D01*
X-112659Y418070D01*
X-112001Y416930D01*
X-111070Y415999D01*
X-109930Y415341D01*
X-109591Y415250D01*
Y414750D01*
X-109930Y414659D01*
X-111070Y414001D01*
X-112001Y413070D01*
X-112659Y411930D01*
X-113000Y410658D01*
Y409342D01*
X-112659Y408070D01*
X-112001Y406930D01*
X-111070Y405999D01*
X-109930Y405341D01*
X-109591Y405250D01*
Y404750D01*
X-109930Y404659D01*
X-111070Y404001D01*
X-112001Y403070D01*
X-112659Y401930D01*
X-113000Y400658D01*
Y399342D01*
X-112659Y398070D01*
X-112001Y396930D01*
X-111070Y395999D01*
X-109930Y395341D01*
X-109591Y395250D01*
Y394750D01*
X-109930Y394659D01*
X-111070Y394001D01*
X-112001Y393070D01*
X-112659Y391930D01*
X-113000Y390658D01*
Y389342D01*
X-112659Y388070D01*
X-112001Y386930D01*
X-111070Y385999D01*
X-109930Y385341D01*
X-109591Y385250D01*
Y384750D01*
X-109930Y384659D01*
X-111070Y384001D01*
X-112001Y383070D01*
X-112659Y381930D01*
X-113000Y380658D01*
Y379342D01*
X-112659Y378070D01*
X-112001Y376930D01*
X-111070Y375999D01*
X-109930Y375341D01*
X-109591Y375250D01*
Y374750D01*
X-109930Y374659D01*
X-111070Y374001D01*
X-112001Y373070D01*
X-112659Y371930D01*
X-113000Y370658D01*
Y369342D01*
X-112659Y368070D01*
X-112001Y366930D01*
X-111070Y365999D01*
X-109930Y365341D01*
X-109591Y365250D01*
Y364750D01*
X-109930Y364659D01*
X-111070Y364001D01*
X-112001Y363070D01*
X-112659Y361930D01*
X-113000Y360658D01*
Y359342D01*
X-112659Y358070D01*
X-112001Y356930D01*
X-111070Y355999D01*
X-109930Y355341D01*
X-109591Y355250D01*
Y354750D01*
X-109930Y354659D01*
X-111070Y354001D01*
X-112001Y353070D01*
X-112659Y351930D01*
X-113000Y350658D01*
Y349342D01*
X-112659Y348070D01*
X-112001Y346930D01*
X-111070Y345999D01*
X-109930Y345341D01*
X-109591Y345250D01*
Y344750D01*
X-109930Y344659D01*
X-111070Y344001D01*
X-112001Y343070D01*
X-112659Y341930D01*
X-113000Y340658D01*
Y339342D01*
X-112659Y338070D01*
X-112001Y336930D01*
X-111070Y335999D01*
X-109930Y335341D01*
X-109591Y335250D01*
Y334750D01*
X-109930Y334659D01*
X-111070Y334001D01*
X-112001Y333070D01*
X-112659Y331930D01*
X-113000Y330658D01*
Y329342D01*
X-112659Y328070D01*
X-112001Y326930D01*
X-111070Y325999D01*
X-109930Y325341D01*
X-109591Y325250D01*
Y324750D01*
X-109930Y324659D01*
X-111070Y324001D01*
X-112001Y323070D01*
X-112659Y321930D01*
X-113000Y320658D01*
Y319342D01*
X-112659Y318070D01*
X-112001Y316930D01*
X-111070Y315999D01*
X-109930Y315341D01*
X-109591Y315250D01*
Y314750D01*
X-109930Y314659D01*
X-111070Y314001D01*
X-112001Y313070D01*
X-112659Y311930D01*
X-113000Y310658D01*
Y309342D01*
X-112659Y308070D01*
X-112001Y306930D01*
X-111070Y305999D01*
X-109930Y305341D01*
X-108658Y305000D01*
X-107342D01*
X-106070Y305341D01*
X-104930Y305999D01*
X-103999Y306930D01*
X-103341Y308070D01*
X-103000Y309342D01*
Y310658D01*
X-103341Y311930D01*
X-103999Y313070D01*
X-104930Y314001D01*
X-106070Y314659D01*
X-106409Y314750D01*
Y315250D01*
X-106070Y315341D01*
X-104930Y315999D01*
X-103999Y316930D01*
X-103341Y318070D01*
X-103000Y319342D01*
Y320658D01*
X-103341Y321930D01*
X-103999Y323070D01*
X-104930Y324001D01*
X-106070Y324659D01*
X-106409Y324750D01*
Y325250D01*
X-106070Y325341D01*
X-104930Y325999D01*
X-103999Y326930D01*
X-103341Y328070D01*
X-103000Y329342D01*
Y330658D01*
X-103341Y331930D01*
X-103999Y333070D01*
X-104930Y334001D01*
X-106070Y334659D01*
X-106409Y334750D01*
Y335250D01*
X-106070Y335341D01*
X-104930Y335999D01*
X-103999Y336930D01*
X-103341Y338070D01*
X-103000Y339342D01*
Y340658D01*
X-103341Y341930D01*
X-103999Y343070D01*
X-104930Y344001D01*
X-106070Y344659D01*
X-106409Y344750D01*
Y345250D01*
X-106070Y345341D01*
X-104930Y345999D01*
X-103999Y346930D01*
X-103341Y348070D01*
X-103000Y349342D01*
Y349928D01*
X-102538Y350119D01*
X-46851Y294432D01*
X-46099Y293855D01*
X-45223Y293493D01*
X-44284Y293369D01*
X-38711D01*
X-37737Y292807D01*
X-36592Y292500D01*
X-35408D01*
X-34263Y292807D01*
X-33237Y293399D01*
X-32399Y294237D01*
X-32131Y294701D01*
X-31631Y294567D01*
Y228711D01*
X-32193Y227737D01*
X-32500Y226592D01*
Y225408D01*
X-32193Y224263D01*
X-31601Y223237D01*
X-30763Y222399D01*
X-29737Y221807D01*
X-28592Y221500D01*
X-27408D01*
X-26263Y221807D01*
X-25237Y222399D01*
X-24399Y223237D01*
X-24131Y223701D01*
X-23631Y223567D01*
Y208618D01*
X-23507Y207678D01*
X-23145Y206802D01*
X-22568Y206050D01*
X-12631Y196114D01*
Y146770D01*
X-13093Y146578D01*
X-13175Y146660D01*
X-14158Y147317D01*
X-15250Y147769D01*
X-15800Y147879D01*
Y142000D01*
Y136121D01*
X-15250Y136231D01*
X-14158Y136683D01*
X-13175Y137339D01*
X-13093Y137422D01*
X-12631Y137230D01*
Y116770D01*
X-13093Y116578D01*
X-13175Y116660D01*
X-14158Y117317D01*
X-15250Y117769D01*
X-15800Y117879D01*
Y112000D01*
Y106121D01*
X-15250Y106231D01*
X-14158Y106683D01*
X-13175Y107340D01*
X-13093Y107422D01*
X-12631Y107230D01*
Y76504D01*
X-13651Y75484D01*
X-14737Y75193D01*
X-15763Y74601D01*
X-16601Y73763D01*
X-17193Y72737D01*
X-17500Y71592D01*
Y70408D01*
X-17193Y69263D01*
X-16601Y68237D01*
X-15763Y67399D01*
X-14737Y66807D01*
X-13592Y66500D01*
X-12408D01*
X-11263Y66807D01*
X-10237Y67399D01*
X-9399Y68237D01*
X-8807Y69263D01*
X-8516Y70349D01*
X-8093Y70772D01*
X-7631Y70581D01*
Y55504D01*
X-14105Y49030D01*
X-25500D01*
X-26414Y48910D01*
X-27265Y48557D01*
X-27996Y47996D01*
X-28557Y47265D01*
X-28910Y46414D01*
X-29030Y45500D01*
Y42500D01*
X-28910Y41586D01*
X-28557Y40735D01*
X-27996Y40004D01*
X-27265Y39443D01*
X-26849Y39271D01*
Y38729D01*
X-27265Y38557D01*
X-27996Y37996D01*
X-28557Y37265D01*
X-28910Y36414D01*
X-29030Y35500D01*
Y32500D01*
X-28910Y31586D01*
X-28557Y30735D01*
X-27996Y30004D01*
X-27265Y29443D01*
X-26849Y29271D01*
Y28729D01*
X-27265Y28557D01*
X-27996Y27996D01*
X-28557Y27265D01*
X-28910Y26414D01*
X-29030Y25500D01*
Y22500D01*
X-28910Y21586D01*
X-28557Y20735D01*
X-27996Y20004D01*
X-27265Y19443D01*
X-26849Y19271D01*
Y18729D01*
X-27265Y18557D01*
X-27996Y17996D01*
X-28557Y17265D01*
X-28910Y16414D01*
X-29030Y15500D01*
Y12500D01*
X-28910Y11586D01*
X-28557Y10735D01*
X-27996Y10004D01*
X-27265Y9443D01*
X-26849Y9271D01*
Y8729D01*
X-27265Y8557D01*
X-27996Y7996D01*
X-28557Y7265D01*
X-28910Y6414D01*
X-29030Y5500D01*
Y2500D01*
X-28910Y1586D01*
X-28557Y735D01*
X-27996Y4D01*
X-27265Y-557D01*
X-26849Y-729D01*
Y-1271D01*
X-27265Y-1443D01*
X-27996Y-2004D01*
X-28557Y-2735D01*
X-28910Y-3586D01*
X-29030Y-4500D01*
Y-7500D01*
X-28910Y-8414D01*
X-28557Y-9265D01*
X-27996Y-9996D01*
X-27265Y-10557D01*
X-26849Y-10729D01*
Y-11271D01*
X-27265Y-11443D01*
X-27996Y-12004D01*
X-28557Y-12735D01*
X-28910Y-13586D01*
X-29030Y-14500D01*
Y-17500D01*
X-28910Y-18414D01*
X-28557Y-19265D01*
X-27996Y-19996D01*
X-27265Y-20557D01*
X-26849Y-20729D01*
Y-21271D01*
X-27265Y-21443D01*
X-27996Y-22004D01*
X-28557Y-22735D01*
X-28910Y-23586D01*
X-29030Y-24500D01*
Y-27500D01*
X-28910Y-28414D01*
X-28557Y-29265D01*
X-27996Y-29996D01*
X-27265Y-30557D01*
X-26414Y-30910D01*
X-25500Y-31030D01*
X-12500D01*
X-11586Y-30910D01*
X-10735Y-30557D01*
X-10004Y-29996D01*
X-9443Y-29265D01*
X-9090Y-28414D01*
X-8970Y-27500D01*
Y-24500D01*
X-9090Y-23586D01*
X-9443Y-22735D01*
X-10004Y-22004D01*
X-10735Y-21443D01*
X-11151Y-21271D01*
Y-20729D01*
X-10735Y-20557D01*
X-10004Y-19996D01*
X-9443Y-19265D01*
X-9090Y-18414D01*
X-8970Y-17500D01*
Y-14500D01*
X-9090Y-13586D01*
X-9443Y-12735D01*
X-10004Y-12004D01*
X-10735Y-11443D01*
X-11151Y-11271D01*
Y-10729D01*
X-10735Y-10557D01*
X-10004Y-9996D01*
X-9443Y-9265D01*
X-9090Y-8414D01*
X-8970Y-7500D01*
Y-4500D01*
X-9090Y-3586D01*
X-9443Y-2735D01*
X-10004Y-2004D01*
X-10735Y-1443D01*
X-10820Y-1408D01*
X-10915Y-827D01*
X-10691Y-631D01*
X6000D01*
X6940Y-507D01*
X7816Y-145D01*
X8568Y432D01*
X9145Y1185D01*
X9507Y2060D01*
X9631Y3000D01*
Y9672D01*
X10064Y9922D01*
X10263Y9807D01*
X11408Y9500D01*
X12592D01*
X13737Y9807D01*
X14763Y10399D01*
X15601Y11237D01*
X16193Y12263D01*
X16500Y13408D01*
Y14592D01*
X16193Y15737D01*
X15631Y16711D01*
Y19297D01*
X16028Y19602D01*
X16408Y19500D01*
X17592D01*
X18737Y19807D01*
X19711Y20369D01*
X22000D01*
X22940Y20493D01*
X23816Y20855D01*
X24567Y21432D01*
X35904Y32769D01*
X40772D01*
X41008Y32328D01*
X40683Y31842D01*
X40231Y30750D01*
X40121Y30200D01*
X51879D01*
X51769Y30750D01*
X51317Y31842D01*
X50993Y32328D01*
X51228Y32769D01*
X59569D01*
X59654Y32610D01*
X59777Y32269D01*
X59269Y31042D01*
X59000Y29689D01*
Y28311D01*
X59269Y26958D01*
X59797Y25684D01*
X60563Y24538D01*
X61538Y23563D01*
X62369Y23007D01*
Y4993D01*
X61538Y4437D01*
X60563Y3462D01*
X59797Y2316D01*
X59269Y1042D01*
X59000Y-311D01*
Y-1689D01*
X59269Y-3042D01*
X59797Y-4316D01*
X60563Y-5462D01*
X61538Y-6437D01*
X62684Y-7203D01*
X63958Y-7731D01*
X65311Y-8000D01*
X66689D01*
X68042Y-7731D01*
X69316Y-7203D01*
X70462Y-6437D01*
X71437Y-5462D01*
X72203Y-4316D01*
X72731Y-3042D01*
X73000Y-1689D01*
Y-311D01*
X72731Y1042D01*
X72203Y2316D01*
X71437Y3462D01*
X70462Y4437D01*
X69631Y4993D01*
Y13671D01*
X70064Y13922D01*
X70263Y13807D01*
X71408Y13500D01*
X72592D01*
X73737Y13807D01*
X74763Y14399D01*
X75601Y15237D01*
X76193Y16263D01*
X76500Y17408D01*
Y18592D01*
X76193Y19737D01*
X75601Y20763D01*
X75287Y21077D01*
Y21504D01*
X75163Y22444D01*
X74800Y23320D01*
X74223Y24072D01*
X72323Y25972D01*
X72731Y26958D01*
X73000Y28311D01*
Y29689D01*
X72755Y30919D01*
X73058Y31383D01*
X73167Y31369D01*
X93125D01*
X94065Y31493D01*
X94941Y31855D01*
X95693Y32432D01*
X96907Y33646D01*
X97369Y33455D01*
Y-496D01*
X88496Y-9369D01*
X15000D01*
X15000Y-9369D01*
X14060Y-9493D01*
X13184Y-9855D01*
X12432Y-10432D01*
X12432Y-10432D01*
X-10504Y-33369D01*
X-98496D01*
X-104369Y-27496D01*
Y369D01*
X-98276D01*
X-97996Y4D01*
X-97265Y-557D01*
X-96850Y-729D01*
Y-1271D01*
X-97265Y-1443D01*
X-97996Y-2004D01*
X-98557Y-2735D01*
X-98910Y-3586D01*
X-99030Y-4500D01*
Y-7500D01*
X-98910Y-8414D01*
X-98557Y-9265D01*
X-97996Y-9996D01*
X-97265Y-10557D01*
X-96850Y-10729D01*
Y-11271D01*
X-97265Y-11443D01*
X-97996Y-12004D01*
X-98557Y-12735D01*
X-98910Y-13586D01*
X-99030Y-14500D01*
Y-17500D01*
X-98910Y-18414D01*
X-98557Y-19265D01*
X-97996Y-19996D01*
X-97265Y-20557D01*
X-96850Y-20729D01*
Y-21271D01*
X-97265Y-21443D01*
X-97996Y-22004D01*
X-98557Y-22735D01*
X-98910Y-23586D01*
X-99030Y-24500D01*
Y-27500D01*
X-98910Y-28414D01*
X-98557Y-29265D01*
X-97996Y-29996D01*
X-97265Y-30557D01*
X-96414Y-30910D01*
X-95500Y-31030D01*
X-82500D01*
X-81586Y-30910D01*
X-80735Y-30557D01*
X-80004Y-29996D01*
X-79443Y-29265D01*
X-79090Y-28414D01*
X-78970Y-27500D01*
Y-24500D01*
X-79090Y-23586D01*
X-79443Y-22735D01*
X-80004Y-22004D01*
X-80735Y-21443D01*
X-81151Y-21271D01*
Y-20729D01*
X-80735Y-20557D01*
X-80004Y-19996D01*
X-79443Y-19265D01*
X-79090Y-18414D01*
X-78970Y-17500D01*
Y-14500D01*
X-79090Y-13586D01*
X-79443Y-12735D01*
X-80004Y-12004D01*
X-80735Y-11443D01*
X-81151Y-11271D01*
Y-10729D01*
X-80735Y-10557D01*
X-80004Y-9996D01*
X-79443Y-9265D01*
X-79090Y-8414D01*
X-78970Y-7500D01*
Y-4500D01*
X-79090Y-3586D01*
X-79443Y-2735D01*
X-80004Y-2004D01*
X-80735Y-1443D01*
X-81151Y-1271D01*
Y-729D01*
X-80735Y-557D01*
X-80004Y4D01*
X-79443Y735D01*
X-79090Y1586D01*
X-78970Y2500D01*
Y5500D01*
X-79090Y6414D01*
X-79443Y7265D01*
X-80004Y7996D01*
X-80735Y8557D01*
X-81151Y8729D01*
Y9271D01*
X-80735Y9443D01*
X-80004Y10004D01*
X-79443Y10735D01*
X-79090Y11586D01*
X-78970Y12500D01*
Y15500D01*
X-79090Y16414D01*
X-79443Y17265D01*
X-80004Y17996D01*
X-80735Y18557D01*
X-81151Y18729D01*
Y19271D01*
X-80735Y19443D01*
X-80004Y20004D01*
X-79443Y20735D01*
X-79090Y21586D01*
X-78970Y22500D01*
Y25500D01*
X-79090Y26414D01*
X-79443Y27265D01*
X-80004Y27996D01*
X-80735Y28557D01*
X-81586Y28910D01*
X-82500Y29030D01*
X-95500D01*
X-96414Y28910D01*
X-97265Y28557D01*
X-97996Y27996D01*
X-98276Y27631D01*
X-100369D01*
Y51754D01*
X-99807Y52728D01*
X-99500Y53873D01*
Y55058D01*
X-99807Y56202D01*
X-100399Y57228D01*
X-101237Y58066D01*
X-102263Y58658D01*
X-103408Y58965D01*
X-104592D01*
X-105737Y58658D01*
X-106763Y58066D01*
X-107601Y57228D01*
X-108193Y56202D01*
X-108500Y55058D01*
Y53873D01*
X-108193Y52728D01*
X-107631Y51754D01*
Y25875D01*
X-107507Y24935D01*
X-107145Y24059D01*
X-106568Y23307D01*
X-104693Y21432D01*
X-103941Y20855D01*
X-103065Y20493D01*
X-102126Y20369D01*
X-98276D01*
X-97996Y20004D01*
X-97265Y19443D01*
X-96850Y19271D01*
Y18729D01*
X-97265Y18557D01*
X-97996Y17996D01*
X-98276Y17631D01*
X-113126D01*
X-114065Y17507D01*
X-114941Y17145D01*
X-115693Y16567D01*
X-117568Y14693D01*
X-118145Y13941D01*
X-118507Y13065D01*
X-118631Y12126D01*
Y-32000D01*
X-118507Y-32940D01*
X-118145Y-33816D01*
X-117568Y-34567D01*
X-103568Y-48568D01*
X-102815Y-49145D01*
X-101940Y-49507D01*
X-101000Y-49631D01*
X-3000D01*
X-2060Y-49507D01*
X-1185Y-49145D01*
X-432Y-48568D01*
X24504Y-23631D01*
X91000D01*
X91940Y-23507D01*
X92816Y-23145D01*
X93568Y-22568D01*
X111567Y-4568D01*
X111568Y-4567D01*
X112145Y-3816D01*
X112507Y-2940D01*
X112631Y-2000D01*
Y60289D01*
X113193Y61263D01*
X113500Y62408D01*
Y63592D01*
X113193Y64737D01*
X112601Y65763D01*
X111763Y66601D01*
X111299Y66869D01*
X111433Y67369D01*
X113782D01*
X114722Y67493D01*
X115598Y67855D01*
X116350Y68432D01*
X120907Y72989D01*
X121369Y72798D01*
Y-20289D01*
X120807Y-21263D01*
X120500Y-22408D01*
Y-23592D01*
X120807Y-24737D01*
X121399Y-25763D01*
X122237Y-26601D01*
X123263Y-27193D01*
X124408Y-27500D01*
X125592D01*
X126737Y-27193D01*
X127763Y-26601D01*
X128601Y-25763D01*
X129193Y-24737D01*
X129500Y-23592D01*
Y-22408D01*
X129193Y-21263D01*
X128631Y-20289D01*
Y42567D01*
X129131Y42701D01*
X129399Y42237D01*
X130237Y41399D01*
X131263Y40807D01*
X132408Y40500D01*
X133592D01*
X134737Y40807D01*
X135711Y41369D01*
X224126D01*
X225065Y41493D01*
X225941Y41855D01*
X226693Y42432D01*
X228568Y44307D01*
X229145Y45059D01*
X229507Y45935D01*
X229631Y46874D01*
Y119000D01*
X229507Y119940D01*
X229145Y120816D01*
X228568Y121568D01*
X217631Y132504D01*
Y133178D01*
X217863Y133333D01*
X218690Y134160D01*
X218750Y134250D01*
X219250D01*
X219310Y134160D01*
X220137Y133333D01*
X221109Y132684D01*
X222189Y132236D01*
X223337Y132008D01*
X224506D01*
X225653Y132236D01*
X226733Y132684D01*
X227706Y133333D01*
X228533Y134160D01*
X228592Y134250D01*
X229093D01*
X229152Y134160D01*
X229979Y133333D01*
X230951Y132684D01*
X232032Y132236D01*
X233179Y132008D01*
X234349D01*
X235495Y132236D01*
X236054Y132467D01*
X236470Y132190D01*
Y36605D01*
X225496Y25631D01*
X186993D01*
X186437Y26462D01*
X185462Y27437D01*
X184316Y28203D01*
X183042Y28731D01*
X181689Y29000D01*
X180311D01*
X178958Y28731D01*
X177684Y28203D01*
X176538Y27437D01*
X175563Y26462D01*
X174797Y25316D01*
X174269Y24042D01*
X174000Y22689D01*
Y21311D01*
X174269Y19958D01*
X174797Y18684D01*
X175563Y17538D01*
X176538Y16563D01*
X177684Y15797D01*
X178958Y15269D01*
X180311Y15000D01*
X181689D01*
X183042Y15269D01*
X184316Y15797D01*
X185462Y16563D01*
X186437Y17538D01*
X186993Y18369D01*
X227000D01*
X227940Y18493D01*
X228816Y18855D01*
X229568Y19433D01*
X242668Y32533D01*
X242668Y32533D01*
X243245Y33285D01*
X243608Y34161D01*
X243732Y35101D01*
Y148899D01*
X243608Y149839D01*
X243245Y150715D01*
X242668Y151467D01*
X234631Y159504D01*
Y239134D01*
X234631Y239134D01*
X234507Y240074D01*
X234145Y240949D01*
X233568Y241701D01*
X233568Y241701D01*
X219980Y255289D01*
X220016Y255470D01*
Y256640D01*
X219788Y257787D01*
X219340Y258867D01*
X218690Y259840D01*
X217863Y260667D01*
X216891Y261316D01*
X215810Y261764D01*
X214664Y261992D01*
X213494D01*
X212347Y261764D01*
X211266Y261316D01*
X210294Y260667D01*
X209467Y259840D01*
X208817Y258867D01*
X208370Y257787D01*
X208142Y256640D01*
Y255470D01*
X208370Y254323D01*
X208817Y253243D01*
X209467Y252271D01*
X210294Y251444D01*
X211266Y250794D01*
X212347Y250346D01*
X213494Y250118D01*
X214664D01*
X214845Y250154D01*
X227369Y237630D01*
Y158000D01*
X227493Y157060D01*
X227855Y156184D01*
X228432Y155432D01*
X236470Y147395D01*
Y143700D01*
X236054Y143422D01*
X235495Y143654D01*
X234349Y143882D01*
X233179D01*
X232032Y143654D01*
X230951Y143206D01*
X229979Y142557D01*
X229152Y141729D01*
X229093Y141640D01*
X228592D01*
X228533Y141729D01*
X227706Y142557D01*
X226733Y143206D01*
X225653Y143654D01*
X224506Y143882D01*
X223337D01*
X222189Y143654D01*
X221109Y143206D01*
X220137Y142557D01*
X219310Y141729D01*
X219250Y141640D01*
X218750D01*
X218690Y141729D01*
X217863Y142557D01*
X216891Y143206D01*
X215810Y143654D01*
X214664Y143882D01*
X213494D01*
X212347Y143654D01*
X211266Y143206D01*
X210294Y142557D01*
X209467Y141729D01*
X209407Y141640D01*
X208908D01*
X208848Y141729D01*
X208021Y142557D01*
X207049Y143206D01*
X205968Y143654D01*
X204821Y143882D01*
X203651D01*
X202504Y143654D01*
X201424Y143206D01*
X200452Y142557D01*
X199625Y141729D01*
X198975Y140757D01*
X198527Y139677D01*
X198299Y138530D01*
Y137360D01*
X198527Y136213D01*
X198975Y135133D01*
X199625Y134160D01*
X200452Y133333D01*
X201273Y132784D01*
Y131970D01*
X201397Y131030D01*
X201760Y130154D01*
X202337Y129402D01*
X203307Y128433D01*
X203307Y128432D01*
X204059Y127855D01*
X204935Y127493D01*
X205874Y127369D01*
X212496D01*
X222369Y117496D01*
Y48631D01*
X135711D01*
X134737Y49193D01*
X133592Y49500D01*
X132408D01*
X131263Y49193D01*
X130237Y48601D01*
X129399Y47763D01*
X129131Y47299D01*
X128631Y47433D01*
Y90336D01*
X129131Y90487D01*
X129340Y90175D01*
X130175Y89340D01*
X131158Y88683D01*
X132250Y88231D01*
X132800Y88121D01*
Y94000D01*
Y99879D01*
X132250Y99769D01*
X131158Y99317D01*
X130175Y98660D01*
X129340Y97825D01*
X129131Y97513D01*
X128631Y97664D01*
Y120335D01*
X129131Y120487D01*
X129340Y120175D01*
X130175Y119340D01*
X131158Y118683D01*
X132250Y118231D01*
X132800Y118121D01*
Y124000D01*
Y129879D01*
X132250Y129769D01*
X131158Y129317D01*
X130175Y128661D01*
X129340Y127825D01*
X129131Y127513D01*
X128631Y127664D01*
Y158289D01*
X129193Y159263D01*
X129500Y160408D01*
Y161592D01*
X129193Y162737D01*
X128631Y163711D01*
Y181289D01*
X129193Y182263D01*
X129500Y183408D01*
Y184592D01*
X129193Y185737D01*
X128601Y186763D01*
X127763Y187601D01*
X126737Y188193D01*
X125592Y188500D01*
X124408D01*
X123263Y188193D01*
X123064Y188078D01*
X122631Y188328D01*
Y220581D01*
X123093Y220772D01*
X157020Y186845D01*
X156891Y186362D01*
X156263Y186193D01*
X155237Y185601D01*
X154399Y184763D01*
X153807Y183737D01*
X153500Y182592D01*
Y181408D01*
X153807Y180263D01*
X154025Y179886D01*
Y179549D01*
X153855Y179328D01*
X153493Y178453D01*
X153369Y177513D01*
Y166711D01*
X152807Y165737D01*
X152500Y164592D01*
Y163408D01*
X152807Y162263D01*
X153399Y161237D01*
X154237Y160399D01*
X155263Y159807D01*
X156408Y159500D01*
X157592D01*
X158737Y159807D01*
X159763Y160399D01*
X160601Y161237D01*
X161193Y162263D01*
X161500Y163408D01*
Y164592D01*
X161193Y165737D01*
X160631Y166711D01*
Y176133D01*
X160800Y176353D01*
X161163Y177229D01*
X161287Y178168D01*
Y178923D01*
X161601Y179237D01*
X162193Y180263D01*
X162362Y180891D01*
X162845Y181020D01*
X172982Y170883D01*
X172699Y170459D01*
X172042Y170731D01*
X170689Y171000D01*
X169311D01*
X167958Y170731D01*
X166684Y170203D01*
X165538Y169437D01*
X164563Y168462D01*
X163797Y167316D01*
X163269Y166042D01*
X163000Y164689D01*
Y163311D01*
X163269Y161958D01*
X163797Y160684D01*
X164563Y159538D01*
X165538Y158563D01*
X166369Y158007D01*
Y139993D01*
X165538Y139437D01*
X164563Y138462D01*
X164007Y137631D01*
X161711D01*
X160737Y138193D01*
X159592Y138500D01*
X158408D01*
X157263Y138193D01*
X156237Y137601D01*
X155399Y136763D01*
X154807Y135737D01*
X154500Y134592D01*
Y133408D01*
X154807Y132263D01*
X155313Y131386D01*
X155040Y130930D01*
X154689Y131000D01*
X153311D01*
X151958Y130731D01*
X150684Y130203D01*
X149538Y129437D01*
X148563Y128462D01*
X147797Y127316D01*
X147269Y126042D01*
X147000Y124689D01*
Y123311D01*
X147269Y121958D01*
X147797Y120684D01*
X148563Y119538D01*
X149538Y118563D01*
X150369Y118007D01*
Y99993D01*
X149538Y99437D01*
X148563Y98462D01*
X147797Y97316D01*
X147269Y96042D01*
X147000Y94689D01*
Y93311D01*
X147269Y91958D01*
X147797Y90684D01*
X148563Y89538D01*
X149538Y88563D01*
X150684Y87797D01*
X151024Y87656D01*
Y86114D01*
X150807Y85737D01*
X150500Y84592D01*
Y83408D01*
X150807Y82263D01*
X151399Y81237D01*
X152237Y80399D01*
X153263Y79807D01*
X154408Y79500D01*
X155592D01*
X156737Y79807D01*
X157763Y80399D01*
X158601Y81237D01*
X159193Y82263D01*
X159500Y83408D01*
Y84592D01*
X159193Y85737D01*
X158601Y86763D01*
X158287Y87077D01*
Y88445D01*
X158462Y88563D01*
X159437Y89538D01*
X160203Y90684D01*
X160731Y91958D01*
X161000Y93311D01*
Y94689D01*
X160731Y96042D01*
X160203Y97316D01*
X159437Y98462D01*
X158462Y99437D01*
X157631Y99993D01*
Y118007D01*
X158462Y118563D01*
X159437Y119538D01*
X160203Y120684D01*
X160731Y121958D01*
X161000Y123311D01*
Y124689D01*
X160731Y126042D01*
X160203Y127316D01*
X159437Y128462D01*
X158899Y129000D01*
X159107Y129500D01*
X159592D01*
X160737Y129807D01*
X161711Y130369D01*
X164007D01*
X164563Y129538D01*
X165538Y128563D01*
X166684Y127797D01*
X167958Y127269D01*
X169311Y127000D01*
X170689D01*
X172042Y127269D01*
X173269Y127777D01*
X173610Y127654D01*
X173769Y127569D01*
Y97219D01*
X173893Y96279D01*
X174255Y95403D01*
X174832Y94651D01*
X176707Y92777D01*
X177459Y92200D01*
X178335Y91837D01*
X179274Y91713D01*
X184923D01*
X185237Y91399D01*
X186263Y90807D01*
X187408Y90500D01*
X188592D01*
X188972Y90602D01*
X189369Y90297D01*
Y86875D01*
X189493Y85935D01*
X189855Y85059D01*
X190432Y84307D01*
X192307Y82432D01*
X193059Y81855D01*
X193845Y81530D01*
X193924Y81242D01*
X193913Y80991D01*
X193237Y80601D01*
X192399Y79763D01*
X191807Y78737D01*
X191516Y77651D01*
X182496Y68631D01*
X163711D01*
X162737Y69193D01*
X161592Y69500D01*
X160408D01*
X159263Y69193D01*
X158237Y68601D01*
X157399Y67763D01*
X156807Y66737D01*
X156500Y65592D01*
Y64408D01*
X156807Y63263D01*
X157399Y62237D01*
X158237Y61399D01*
X159263Y60807D01*
X160408Y60500D01*
X161592D01*
X162737Y60807D01*
X163711Y61369D01*
X184000D01*
X184940Y61493D01*
X185816Y61855D01*
X186568Y62432D01*
X196000Y71865D01*
X202971Y64894D01*
X203129Y63695D01*
X203632Y62478D01*
X204434Y61434D01*
X205478Y60632D01*
X205798Y60500D01*
X205699Y60000D01*
X203000D01*
Y58631D01*
X194711D01*
X193737Y59193D01*
X192593Y59500D01*
X191408D01*
X190263Y59193D01*
X189237Y58601D01*
X188399Y57763D01*
X187807Y56737D01*
X187500Y55592D01*
Y54408D01*
X187807Y53263D01*
X188399Y52237D01*
X189237Y51399D01*
X190263Y50807D01*
X191408Y50500D01*
X192593D01*
X193737Y50807D01*
X194711Y51369D01*
X203000D01*
Y50000D01*
X215000D01*
Y60000D01*
X212301D01*
X212202Y60500D01*
X212522Y60632D01*
X213566Y61434D01*
X214368Y62478D01*
X214871Y63695D01*
X215043Y65000D01*
X214871Y66305D01*
X214368Y67522D01*
X213566Y68566D01*
X212522Y69367D01*
X211305Y69871D01*
X210000Y70043D01*
X208092D01*
X207594Y70541D01*
X207800Y70960D01*
Y75000D01*
Y79008D01*
X206956Y78897D01*
X205983Y78494D01*
X205147Y77853D01*
X204506Y77017D01*
X204103Y76044D01*
X203965Y75000D01*
X203990Y74815D01*
X203541Y74594D01*
X200484Y77651D01*
X200193Y78737D01*
X199601Y79763D01*
X198763Y80601D01*
X198299Y80869D01*
X198433Y81369D01*
X204519D01*
X205478Y80633D01*
X206695Y80129D01*
X208000Y79957D01*
X210000D01*
X211305Y80129D01*
X212522Y80633D01*
X213566Y81434D01*
X214368Y82478D01*
X214871Y83695D01*
X215043Y85000D01*
X214871Y86305D01*
X214368Y87522D01*
X213566Y88566D01*
X212522Y89368D01*
X211648Y89729D01*
Y90271D01*
X212522Y90632D01*
X213566Y91434D01*
X214368Y92478D01*
X214871Y93695D01*
X215043Y95000D01*
X214871Y96305D01*
X214368Y97522D01*
X213566Y98566D01*
X212522Y99367D01*
X211648Y99729D01*
Y100271D01*
X212522Y100633D01*
X213566Y101434D01*
X214368Y102478D01*
X214871Y103695D01*
X215043Y105000D01*
X214871Y106305D01*
X214368Y107522D01*
X213566Y108566D01*
X212522Y109368D01*
X211305Y109871D01*
X210000Y110043D01*
X208000D01*
X206695Y109871D01*
X205478Y109368D01*
X204434Y108566D01*
X203632Y107522D01*
X203129Y106305D01*
X202957Y105000D01*
X203129Y103695D01*
X203632Y102478D01*
X204434Y101434D01*
X205478Y100633D01*
X206352Y100271D01*
Y99729D01*
X205478Y99367D01*
X204519Y98631D01*
X200711D01*
X199737Y99193D01*
X198592Y99500D01*
X197408D01*
X197028Y99398D01*
X196631Y99703D01*
Y103000D01*
X196507Y103940D01*
X196145Y104815D01*
X195568Y105568D01*
X186231Y114904D01*
Y128772D01*
X186672Y129007D01*
X187158Y128683D01*
X188250Y128231D01*
X188800Y128121D01*
Y134000D01*
Y139879D01*
X188250Y139769D01*
X187158Y139317D01*
X186672Y138993D01*
X186231Y139228D01*
Y158772D01*
X186672Y159008D01*
X187158Y158683D01*
X188250Y158231D01*
X188800Y158121D01*
Y164000D01*
Y169879D01*
X188250Y169769D01*
X187158Y169317D01*
X186672Y168992D01*
X186231Y169228D01*
Y174400D01*
X186231Y174400D01*
X186107Y175340D01*
X185745Y176216D01*
X185168Y176968D01*
X185168Y176968D01*
X135631Y226504D01*
Y241000D01*
X135507Y241940D01*
X135145Y242815D01*
X134568Y243567D01*
X133816Y244145D01*
X132940Y244507D01*
X132000Y244631D01*
X127711D01*
X126737Y245193D01*
X125592Y245500D01*
X124408D01*
X123263Y245193D01*
X123064Y245078D01*
X122631Y245328D01*
Y253657D01*
X122507Y254597D01*
X122145Y255472D01*
X121568Y256224D01*
X78224Y299568D01*
X77472Y300145D01*
X76597Y300507D01*
X75657Y300631D01*
X57711D01*
X56737Y301193D01*
X55592Y301500D01*
X54408D01*
X53263Y301193D01*
X52237Y300601D01*
X51399Y299763D01*
X51131Y299299D01*
X50631Y299433D01*
Y315289D01*
X51193Y316263D01*
X51500Y317408D01*
Y318592D01*
X51193Y319737D01*
X50601Y320763D01*
X49763Y321601D01*
X48737Y322193D01*
X47592Y322500D01*
X46408D01*
X45263Y322193D01*
X44237Y321601D01*
X43399Y320763D01*
X42807Y319737D01*
X42500Y318592D01*
Y317408D01*
X42807Y316263D01*
X43369Y315289D01*
Y267000D01*
X43493Y266060D01*
X43855Y265184D01*
X44433Y264432D01*
X45184Y263855D01*
X46060Y263493D01*
X47000Y263369D01*
X96496D01*
X110369Y249496D01*
Y244648D01*
X109907Y244457D01*
X109763Y244601D01*
X108737Y245193D01*
X107592Y245500D01*
X106408D01*
X105263Y245193D01*
X104289Y244631D01*
X103433D01*
X103299Y245131D01*
X103763Y245399D01*
X104601Y246237D01*
X105193Y247263D01*
X105500Y248408D01*
Y249592D01*
X105193Y250737D01*
X104601Y251763D01*
X103763Y252601D01*
X102737Y253193D01*
X101592Y253500D01*
X100408D01*
X99263Y253193D01*
X98289Y252631D01*
X35000D01*
X35000Y252631D01*
X34060Y252507D01*
X33184Y252145D01*
X32432Y251568D01*
X26818Y245953D01*
X20669D01*
Y236047D01*
X23558D01*
X23658Y235547D01*
X23124Y235326D01*
X22090Y234532D01*
X21296Y233498D01*
X20982Y232741D01*
X20492Y232643D01*
X18631Y234504D01*
Y336125D01*
X18507Y337065D01*
X18145Y337941D01*
X17568Y338693D01*
X15693Y340567D01*
X14941Y341145D01*
X14065Y341507D01*
X13126Y341631D01*
X-23779D01*
X-103071Y420922D01*
X-103341Y421930D01*
X-103999Y423070D01*
X-104930Y424001D01*
X-106070Y424659D01*
X-107342Y425000D01*
D02*
G37*
G36*
X-69408Y189500D02*
X-70592D01*
X-71737Y189193D01*
X-72763Y188601D01*
X-73601Y187763D01*
X-74193Y186737D01*
X-74500Y185592D01*
Y184408D01*
X-74193Y183263D01*
X-73631Y182289D01*
Y180993D01*
X-74462Y180437D01*
X-75437Y179462D01*
X-76203Y178316D01*
X-76731Y177042D01*
X-77000Y175689D01*
Y174311D01*
X-76731Y172958D01*
X-76203Y171684D01*
X-75437Y170538D01*
X-74462Y169563D01*
X-73631Y169007D01*
Y150993D01*
X-74462Y150437D01*
X-75437Y149462D01*
X-76203Y148316D01*
X-76731Y147042D01*
X-76873Y146329D01*
X-77403Y146224D01*
X-77563Y146462D01*
X-78538Y147437D01*
X-79369Y147993D01*
Y150289D01*
X-78807Y151263D01*
X-78500Y152408D01*
Y153592D01*
X-78807Y154737D01*
X-79399Y155763D01*
X-80237Y156601D01*
X-81263Y157193D01*
X-82408Y157500D01*
X-83592D01*
X-84737Y157193D01*
X-85763Y156601D01*
X-86601Y155763D01*
X-87193Y154737D01*
X-87500Y153592D01*
Y152408D01*
X-87193Y151263D01*
X-86631Y150289D01*
Y147993D01*
X-87462Y147437D01*
X-88437Y146462D01*
X-89203Y145316D01*
X-89731Y144042D01*
X-90000Y142689D01*
Y141311D01*
X-89731Y139958D01*
X-89203Y138684D01*
X-88437Y137538D01*
X-87462Y136563D01*
X-86631Y136007D01*
Y117993D01*
X-87462Y117437D01*
X-88437Y116462D01*
X-89203Y115316D01*
X-89731Y114042D01*
X-90000Y112689D01*
Y111311D01*
X-89731Y109958D01*
X-89203Y108684D01*
X-88437Y107538D01*
X-87462Y106563D01*
X-86316Y105797D01*
X-85042Y105269D01*
X-83689Y105000D01*
X-82311D01*
X-80958Y105269D01*
X-79684Y105797D01*
X-78538Y106563D01*
X-77563Y107538D01*
X-76797Y108684D01*
X-76269Y109958D01*
X-76000Y111311D01*
Y112689D01*
X-76269Y114042D01*
X-76797Y115316D01*
X-77563Y116462D01*
X-78538Y117437D01*
X-79369Y117993D01*
Y136007D01*
X-78538Y136563D01*
X-77563Y137538D01*
X-76797Y138684D01*
X-76269Y139958D01*
X-76127Y140671D01*
X-75596Y140776D01*
X-75437Y140538D01*
X-74462Y139563D01*
X-73316Y138797D01*
X-72042Y138269D01*
X-70689Y138000D01*
X-69311D01*
X-67958Y138269D01*
X-66684Y138797D01*
X-65538Y139563D01*
X-64563Y140538D01*
X-63797Y141684D01*
X-63269Y142958D01*
X-63000Y144311D01*
Y145689D01*
X-63269Y147042D01*
X-63797Y148316D01*
X-64563Y149462D01*
X-65538Y150437D01*
X-66369Y150993D01*
Y169007D01*
X-65538Y169563D01*
X-64563Y170538D01*
X-63797Y171684D01*
X-63269Y172958D01*
X-63000Y174311D01*
Y175689D01*
X-63269Y177042D01*
X-63797Y178316D01*
X-64563Y179462D01*
X-65538Y180437D01*
X-66369Y180993D01*
Y182289D01*
X-65807Y183263D01*
X-65500Y184408D01*
Y185592D01*
X-65807Y186737D01*
X-66399Y187763D01*
X-67237Y188601D01*
X-68263Y189193D01*
X-69408Y189500D01*
D02*
G37*
G36*
X-51200Y150879D02*
X-51750Y150769D01*
X-52842Y150317D01*
X-53825Y149661D01*
X-54660Y148825D01*
X-55317Y147842D01*
X-55769Y146750D01*
X-55879Y146200D01*
X-51200D01*
Y150879D01*
D02*
G37*
G36*
X-36408Y155500D02*
X-37592D01*
X-38737Y155193D01*
X-39763Y154601D01*
X-40601Y153763D01*
X-41193Y152737D01*
X-41500Y151592D01*
Y150408D01*
X-41193Y149263D01*
X-40631Y148289D01*
Y147993D01*
X-41462Y147437D01*
X-42437Y146462D01*
X-43203Y145316D01*
X-43500Y144599D01*
X-44000Y144699D01*
Y145591D01*
X-44231Y146750D01*
X-44683Y147842D01*
X-45340Y148825D01*
X-46175Y149661D01*
X-47158Y150317D01*
X-48250Y150769D01*
X-48800Y150879D01*
Y145000D01*
Y139121D01*
X-48250Y139231D01*
X-47158Y139683D01*
X-46175Y140340D01*
X-45340Y141175D01*
X-44683Y142158D01*
X-44500Y142599D01*
X-44000Y142500D01*
Y141311D01*
X-43731Y139958D01*
X-43203Y138684D01*
X-42437Y137538D01*
X-41462Y136563D01*
X-40631Y136007D01*
Y117993D01*
X-41462Y117437D01*
X-42437Y116462D01*
X-43203Y115316D01*
X-43731Y114042D01*
X-44000Y112689D01*
Y112481D01*
X-44478Y112336D01*
X-44563Y112462D01*
X-45538Y113437D01*
X-46684Y114203D01*
X-47958Y114731D01*
X-49311Y115000D01*
X-50689D01*
X-52042Y114731D01*
X-53316Y114203D01*
X-54462Y113437D01*
X-55437Y112462D01*
X-56203Y111316D01*
X-56731Y110042D01*
X-57000Y108689D01*
Y107311D01*
X-56731Y105958D01*
X-56203Y104684D01*
X-55437Y103538D01*
X-54462Y102563D01*
X-53631Y102007D01*
Y83993D01*
X-54462Y83437D01*
X-55437Y82462D01*
X-56203Y81316D01*
X-56731Y80042D01*
X-57000Y78689D01*
Y77311D01*
X-56731Y75958D01*
X-56203Y74684D01*
X-55437Y73538D01*
X-54462Y72563D01*
X-53316Y71797D01*
X-52042Y71269D01*
X-50689Y71000D01*
X-49311D01*
X-47958Y71269D01*
X-46684Y71797D01*
X-45538Y72563D01*
X-44563Y73538D01*
X-43797Y74684D01*
X-43269Y75958D01*
X-43000Y77311D01*
Y78689D01*
X-43269Y80042D01*
X-43797Y81316D01*
X-44563Y82462D01*
X-45538Y83437D01*
X-46369Y83993D01*
Y99567D01*
X-45869Y99701D01*
X-45601Y99237D01*
X-44763Y98399D01*
X-43737Y97807D01*
X-42592Y97500D01*
X-41408D01*
X-40263Y97807D01*
X-39237Y98399D01*
X-38399Y99237D01*
X-37807Y100263D01*
X-37500Y101408D01*
Y102592D01*
X-37807Y103737D01*
X-38313Y104614D01*
X-38040Y105070D01*
X-37689Y105000D01*
X-36311D01*
X-34958Y105269D01*
X-33684Y105797D01*
X-32538Y106563D01*
X-31563Y107538D01*
X-30797Y108684D01*
X-30269Y109958D01*
X-30000Y111311D01*
Y112689D01*
X-30269Y114042D01*
X-30797Y115316D01*
X-31563Y116462D01*
X-32538Y117437D01*
X-33369Y117993D01*
Y136007D01*
X-32538Y136563D01*
X-31563Y137538D01*
X-30797Y138684D01*
X-30269Y139958D01*
X-30000Y141311D01*
Y142689D01*
X-30269Y144042D01*
X-30797Y145316D01*
X-31563Y146462D01*
X-32538Y147437D01*
X-33369Y147993D01*
Y148289D01*
X-32807Y149263D01*
X-32500Y150408D01*
Y151592D01*
X-32807Y152737D01*
X-33399Y153763D01*
X-34237Y154601D01*
X-35263Y155193D01*
X-36408Y155500D01*
D02*
G37*
G36*
X-101800Y147879D02*
Y143200D01*
X-97121D01*
X-97231Y143750D01*
X-97683Y144842D01*
X-98339Y145825D01*
X-99175Y146660D01*
X-100158Y147317D01*
X-101250Y147769D01*
X-101800Y147879D01*
D02*
G37*
G36*
X-104200D02*
X-104750Y147769D01*
X-105842Y147317D01*
X-106825Y146660D01*
X-107660Y145825D01*
X-108317Y144842D01*
X-108769Y143750D01*
X-108879Y143200D01*
X-104200D01*
Y147879D01*
D02*
G37*
G36*
X-18200Y147879D02*
X-18750Y147769D01*
X-19842Y147317D01*
X-20825Y146660D01*
X-21660Y145825D01*
X-22317Y144842D01*
X-22769Y143750D01*
X-22879Y143200D01*
X-18200D01*
Y147879D01*
D02*
G37*
G36*
X-51200Y143800D02*
X-55879D01*
X-55769Y143250D01*
X-55317Y142158D01*
X-54660Y141175D01*
X-53825Y140340D01*
X-52842Y139683D01*
X-51750Y139231D01*
X-51200Y139121D01*
Y143800D01*
D02*
G37*
G36*
X-97121Y140800D02*
X-101800D01*
Y136121D01*
X-101250Y136231D01*
X-100158Y136683D01*
X-99175Y137339D01*
X-98339Y138175D01*
X-97683Y139158D01*
X-97231Y140250D01*
X-97121Y140800D01*
D02*
G37*
G36*
X-104200D02*
X-108879D01*
X-108769Y140250D01*
X-108317Y139158D01*
X-107660Y138175D01*
X-106825Y137339D01*
X-105842Y136683D01*
X-104750Y136231D01*
X-104200Y136121D01*
Y140800D01*
D02*
G37*
G36*
X-18200D02*
X-22879D01*
X-22769Y140250D01*
X-22317Y139158D01*
X-21660Y138175D01*
X-20825Y137339D01*
X-19842Y136683D01*
X-18750Y136231D01*
X-18200Y136121D01*
Y140800D01*
D02*
G37*
G36*
X191200Y139879D02*
Y135200D01*
X195879D01*
X195769Y135750D01*
X195317Y136842D01*
X194660Y137825D01*
X193825Y138661D01*
X192842Y139317D01*
X191750Y139769D01*
X191200Y139879D01*
D02*
G37*
G36*
X195879Y132800D02*
X191200D01*
Y128121D01*
X191750Y128231D01*
X192842Y128683D01*
X193825Y129340D01*
X194660Y130175D01*
X195317Y131158D01*
X195769Y132250D01*
X195879Y132800D01*
D02*
G37*
G36*
X135200Y129879D02*
Y125200D01*
X139879D01*
X139769Y125750D01*
X139317Y126842D01*
X138661Y127825D01*
X137825Y128661D01*
X136842Y129317D01*
X135750Y129769D01*
X135200Y129879D01*
D02*
G37*
G36*
X139879Y122800D02*
X135200D01*
Y118121D01*
X135750Y118231D01*
X136842Y118683D01*
X137825Y119340D01*
X138661Y120175D01*
X139317Y121158D01*
X139769Y122250D01*
X139879Y122800D01*
D02*
G37*
G36*
X-101800Y117879D02*
Y113200D01*
X-97121D01*
X-97231Y113750D01*
X-97683Y114842D01*
X-98339Y115825D01*
X-99175Y116660D01*
X-100158Y117317D01*
X-101250Y117769D01*
X-101800Y117879D01*
D02*
G37*
G36*
X-104200D02*
X-104750Y117769D01*
X-105842Y117317D01*
X-106825Y116660D01*
X-107660Y115825D01*
X-108317Y114842D01*
X-108769Y113750D01*
X-108879Y113200D01*
X-104200D01*
Y117879D01*
D02*
G37*
G36*
X-18200Y117879D02*
X-18750Y117769D01*
X-19842Y117317D01*
X-20825Y116660D01*
X-21660Y115825D01*
X-22317Y114842D01*
X-22769Y113750D01*
X-22879Y113200D01*
X-18200D01*
Y117879D01*
D02*
G37*
G36*
X-68800Y113879D02*
Y109200D01*
X-64121D01*
X-64231Y109750D01*
X-64683Y110842D01*
X-65339Y111825D01*
X-66175Y112661D01*
X-67158Y113317D01*
X-68250Y113769D01*
X-68800Y113879D01*
D02*
G37*
G36*
X-71200D02*
X-71750Y113769D01*
X-72842Y113317D01*
X-73825Y112661D01*
X-74660Y111825D01*
X-75317Y110842D01*
X-75769Y109750D01*
X-75879Y109200D01*
X-71200D01*
Y113879D01*
D02*
G37*
G36*
X-97121Y110800D02*
X-101800D01*
Y106121D01*
X-101250Y106231D01*
X-100158Y106683D01*
X-99175Y107340D01*
X-98339Y108175D01*
X-97683Y109158D01*
X-97231Y110250D01*
X-97121Y110800D01*
D02*
G37*
G36*
X-104200D02*
X-108879D01*
X-108769Y110250D01*
X-108317Y109158D01*
X-107660Y108175D01*
X-106825Y107340D01*
X-105842Y106683D01*
X-104750Y106231D01*
X-104200Y106121D01*
Y110800D01*
D02*
G37*
G36*
X-18200D02*
X-22879D01*
X-22769Y110250D01*
X-22317Y109158D01*
X-21660Y108175D01*
X-20825Y107340D01*
X-19842Y106683D01*
X-18750Y106231D01*
X-18200Y106121D01*
Y110800D01*
D02*
G37*
G36*
X-64121Y106800D02*
X-68800D01*
Y102121D01*
X-68250Y102231D01*
X-67158Y102683D01*
X-66175Y103340D01*
X-65339Y104175D01*
X-64683Y105158D01*
X-64231Y106250D01*
X-64121Y106800D01*
D02*
G37*
G36*
X-71200D02*
X-75879D01*
X-75769Y106250D01*
X-75317Y105158D01*
X-74660Y104175D01*
X-73825Y103340D01*
X-72842Y102683D01*
X-71750Y102231D01*
X-71200Y102121D01*
Y106800D01*
D02*
G37*
G36*
X135200Y99879D02*
Y95200D01*
X139879D01*
X139769Y95750D01*
X139317Y96842D01*
X138661Y97825D01*
X137825Y98660D01*
X136842Y99317D01*
X135750Y99769D01*
X135200Y99879D01*
D02*
G37*
G36*
X139879Y92800D02*
X135200D01*
Y88121D01*
X135750Y88231D01*
X136842Y88683D01*
X137825Y89340D01*
X138661Y90175D01*
X139317Y91158D01*
X139769Y92250D01*
X139879Y92800D01*
D02*
G37*
G36*
X-26800Y85302D02*
Y83200D01*
X-24698D01*
X-24738Y83351D01*
X-25199Y84149D01*
X-25851Y84801D01*
X-26649Y85261D01*
X-26800Y85302D01*
D02*
G37*
G36*
X-29200D02*
X-29351Y85261D01*
X-30149Y84801D01*
X-30801Y84149D01*
X-31262Y83351D01*
X-31302Y83200D01*
X-29200D01*
Y85302D01*
D02*
G37*
G36*
X-68800Y83879D02*
Y79200D01*
X-64121D01*
X-64231Y79750D01*
X-64683Y80842D01*
X-65339Y81825D01*
X-66175Y82661D01*
X-67158Y83317D01*
X-68250Y83769D01*
X-68800Y83879D01*
D02*
G37*
G36*
X-71200D02*
X-71750Y83769D01*
X-72842Y83317D01*
X-73825Y82661D01*
X-74660Y81825D01*
X-75317Y80842D01*
X-75769Y79750D01*
X-75879Y79200D01*
X-71200D01*
Y83879D01*
D02*
G37*
G36*
X-24698Y80800D02*
X-26800D01*
Y78698D01*
X-26649Y78738D01*
X-25851Y79199D01*
X-25199Y79851D01*
X-24738Y80649D01*
X-24698Y80800D01*
D02*
G37*
G36*
X-29200D02*
X-31302D01*
X-31262Y80649D01*
X-30801Y79851D01*
X-30149Y79199D01*
X-29351Y78738D01*
X-29200Y78698D01*
Y80800D01*
D02*
G37*
G36*
X210200Y79008D02*
Y76200D01*
X213832D01*
X213494Y77017D01*
X212853Y77853D01*
X212017Y78494D01*
X211044Y78897D01*
X210200Y79008D01*
D02*
G37*
G36*
X-64121Y76800D02*
X-68800D01*
Y72121D01*
X-68250Y72231D01*
X-67158Y72683D01*
X-66175Y73339D01*
X-65339Y74175D01*
X-64683Y75158D01*
X-64231Y76250D01*
X-64121Y76800D01*
D02*
G37*
G36*
X-71200D02*
X-75879D01*
X-75769Y76250D01*
X-75317Y75158D01*
X-74660Y74175D01*
X-73825Y73339D01*
X-72842Y72683D01*
X-71750Y72231D01*
X-71200Y72121D01*
Y76800D01*
D02*
G37*
G36*
X213832Y73800D02*
X210200D01*
Y70992D01*
X211044Y71103D01*
X212017Y71506D01*
X212853Y72147D01*
X213494Y72983D01*
X213832Y73800D01*
D02*
G37*
G36*
X143200Y66302D02*
Y64200D01*
X145302D01*
X145262Y64351D01*
X144801Y65149D01*
X144149Y65801D01*
X143351Y66262D01*
X143200Y66302D01*
D02*
G37*
G36*
X140800D02*
X140649Y66262D01*
X139851Y65801D01*
X139199Y65149D01*
X138739Y64351D01*
X138698Y64200D01*
X140800D01*
Y66302D01*
D02*
G37*
G36*
X145302Y61800D02*
X143200D01*
Y59698D01*
X143351Y59738D01*
X144149Y60199D01*
X144801Y60851D01*
X145262Y61649D01*
X145302Y61800D01*
D02*
G37*
G36*
X140800D02*
X138698D01*
X138739Y61649D01*
X139199Y60851D01*
X139851Y60199D01*
X140649Y59738D01*
X140800Y59698D01*
Y61800D01*
D02*
G37*
G36*
X-82500Y49030D02*
X-95500D01*
X-96414Y48910D01*
X-97265Y48557D01*
X-97996Y47996D01*
X-98557Y47265D01*
X-98910Y46414D01*
X-99030Y45500D01*
Y42500D01*
X-98910Y41586D01*
X-98557Y40735D01*
X-97996Y40004D01*
X-97265Y39443D01*
X-96414Y39090D01*
X-95500Y38970D01*
X-82500D01*
X-81586Y39090D01*
X-80735Y39443D01*
X-80004Y40004D01*
X-79443Y40735D01*
X-79090Y41586D01*
X-78970Y42500D01*
Y45500D01*
X-79090Y46414D01*
X-79443Y47265D01*
X-80004Y47996D01*
X-80735Y48557D01*
X-81586Y48910D01*
X-82500Y49030D01*
D02*
G37*
G36*
Y38049D02*
X-87800D01*
Y35200D01*
X-79951D01*
Y35500D01*
X-80145Y36476D01*
X-80698Y37302D01*
X-81524Y37855D01*
X-82500Y38049D01*
D02*
G37*
G36*
X-90200D02*
X-95500D01*
X-96475Y37855D01*
X-97302Y37302D01*
X-97855Y36476D01*
X-98049Y35500D01*
Y35200D01*
X-90200D01*
Y38049D01*
D02*
G37*
G36*
X-79951Y32800D02*
X-87800D01*
Y29951D01*
X-82500D01*
X-81524Y30145D01*
X-80698Y30698D01*
X-80145Y31525D01*
X-79951Y32500D01*
Y32800D01*
D02*
G37*
G36*
X-90200D02*
X-98049D01*
Y32500D01*
X-97855Y31525D01*
X-97302Y30698D01*
X-96475Y30145D01*
X-95500Y29951D01*
X-90200D01*
Y32800D01*
D02*
G37*
G36*
X51879Y27800D02*
X47200D01*
Y23121D01*
X47750Y23231D01*
X48842Y23683D01*
X49825Y24340D01*
X50661Y25175D01*
X51317Y26158D01*
X51769Y27250D01*
X51879Y27800D01*
D02*
G37*
G36*
X44800D02*
X40121D01*
X40231Y27250D01*
X40683Y26158D01*
X41339Y25175D01*
X42175Y24340D01*
X43158Y23683D01*
X44250Y23231D01*
X44800Y23121D01*
Y27800D01*
D02*
G37*
G36*
X118200Y8302D02*
Y6200D01*
X120302D01*
X120262Y6351D01*
X119801Y7149D01*
X119149Y7801D01*
X118351Y8262D01*
X118200Y8302D01*
D02*
G37*
G36*
X115800D02*
X115649Y8262D01*
X114851Y7801D01*
X114199Y7149D01*
X113739Y6351D01*
X113698Y6200D01*
X115800D01*
Y8302D01*
D02*
G37*
G36*
X120302Y3800D02*
X118200D01*
Y1698D01*
X118351Y1739D01*
X119149Y2199D01*
X119801Y2851D01*
X120262Y3649D01*
X120302Y3800D01*
D02*
G37*
G36*
X115800D02*
X113698D01*
X113739Y3649D01*
X114199Y2851D01*
X114851Y2199D01*
X115649Y1739D01*
X115800Y1698D01*
Y3800D01*
D02*
G37*
G36*
X47200Y4879D02*
Y200D01*
X51879D01*
X51769Y750D01*
X51317Y1842D01*
X50661Y2825D01*
X49825Y3661D01*
X48842Y4317D01*
X47750Y4769D01*
X47200Y4879D01*
D02*
G37*
G36*
X51879Y-2200D02*
X47200D01*
Y-6879D01*
X47750Y-6769D01*
X48842Y-6317D01*
X49825Y-5661D01*
X50661Y-4825D01*
X51317Y-3842D01*
X51769Y-2750D01*
X51879Y-2200D01*
D02*
G37*
G36*
X44800Y4879D02*
X44250Y4769D01*
X43158Y4317D01*
X42175Y3661D01*
X41339Y2825D01*
X40814Y2038D01*
X24282D01*
X23342Y1915D01*
X22466Y1552D01*
X21714Y975D01*
X21370Y630D01*
X20793Y-122D01*
X20430Y-998D01*
X20306Y-1937D01*
X20430Y-2877D01*
X20793Y-3753D01*
X21370Y-4505D01*
X22122Y-5082D01*
X22998Y-5445D01*
X23937Y-5568D01*
X24877Y-5445D01*
X25410Y-5224D01*
X41739D01*
X42175Y-5661D01*
X43158Y-6317D01*
X44250Y-6769D01*
X44800Y-6879D01*
Y-1000D01*
Y4879D01*
D02*
G37*
G36*
X182200Y-12121D02*
Y-16800D01*
X186879D01*
X186769Y-16250D01*
X186317Y-15158D01*
X185661Y-14175D01*
X184825Y-13340D01*
X183842Y-12683D01*
X182750Y-12231D01*
X182200Y-12121D01*
D02*
G37*
G36*
X179800D02*
X179250Y-12231D01*
X178158Y-12683D01*
X177175Y-13340D01*
X176339Y-14175D01*
X175683Y-15158D01*
X175231Y-16250D01*
X175121Y-16800D01*
X179800D01*
Y-12121D01*
D02*
G37*
G36*
X186879Y-19200D02*
X182200D01*
Y-23879D01*
X182750Y-23769D01*
X183842Y-23317D01*
X184825Y-22660D01*
X185661Y-21825D01*
X186317Y-20842D01*
X186769Y-19750D01*
X186879Y-19200D01*
D02*
G37*
G36*
X179800D02*
X175121D01*
X175231Y-19750D01*
X175683Y-20842D01*
X176339Y-21825D01*
X177175Y-22660D01*
X178158Y-23317D01*
X179250Y-23769D01*
X179800Y-23879D01*
Y-19200D01*
D02*
G37*
G36*
X116200Y-30698D02*
Y-32800D01*
X118302D01*
X118262Y-32649D01*
X117801Y-31851D01*
X117149Y-31199D01*
X116351Y-30738D01*
X116200Y-30698D01*
D02*
G37*
G36*
X113800D02*
X113649Y-30738D01*
X112851Y-31199D01*
X112199Y-31851D01*
X111739Y-32649D01*
X111698Y-32800D01*
X113800D01*
Y-30698D01*
D02*
G37*
G36*
X25200D02*
Y-32800D01*
X27302D01*
X27261Y-32649D01*
X26801Y-31851D01*
X26149Y-31199D01*
X25351Y-30738D01*
X25200Y-30698D01*
D02*
G37*
G36*
X22800D02*
X22649Y-30738D01*
X21851Y-31199D01*
X21199Y-31851D01*
X20739Y-32649D01*
X20698Y-32800D01*
X22800D01*
Y-30698D01*
D02*
G37*
G36*
X118302Y-35200D02*
X116200D01*
Y-37302D01*
X116351Y-37262D01*
X117149Y-36801D01*
X117801Y-36149D01*
X118262Y-35351D01*
X118302Y-35200D01*
D02*
G37*
G36*
X113800D02*
X111698D01*
X111739Y-35351D01*
X112199Y-36149D01*
X112851Y-36801D01*
X113649Y-37262D01*
X113800Y-37302D01*
Y-35200D01*
D02*
G37*
G36*
X27302D02*
X25200D01*
Y-37302D01*
X25351Y-37262D01*
X26149Y-36801D01*
X26801Y-36149D01*
X27261Y-35351D01*
X27302Y-35200D01*
D02*
G37*
G36*
X22800D02*
X20698D01*
X20739Y-35351D01*
X21199Y-36149D01*
X21851Y-36801D01*
X22649Y-37262D01*
X22800Y-37302D01*
Y-35200D01*
D02*
G37*
G36*
X65200Y-35102D02*
Y-40800D01*
X70898D01*
X70731Y-39958D01*
X70203Y-38684D01*
X69437Y-37538D01*
X68462Y-36563D01*
X67316Y-35797D01*
X66042Y-35269D01*
X65200Y-35102D01*
D02*
G37*
G36*
X62800D02*
X61958Y-35269D01*
X60684Y-35797D01*
X59538Y-36563D01*
X58563Y-37538D01*
X57797Y-38684D01*
X57269Y-39958D01*
X57102Y-40800D01*
X62800D01*
Y-35102D01*
D02*
G37*
G36*
X70898Y-43200D02*
X65200D01*
Y-48898D01*
X66042Y-48731D01*
X67316Y-48203D01*
X68462Y-47437D01*
X69437Y-46462D01*
X70203Y-45316D01*
X70731Y-44042D01*
X70898Y-43200D01*
D02*
G37*
G36*
X62800D02*
X57102D01*
X57269Y-44042D01*
X57797Y-45316D01*
X58563Y-46462D01*
X59538Y-47437D01*
X60684Y-48203D01*
X61958Y-48731D01*
X62800Y-48898D01*
Y-43200D01*
D02*
G37*
%LPD*%
G36*
X-1631Y225561D02*
X-1507Y224621D01*
X-1145Y223745D01*
X-568Y222993D01*
X10468Y211958D01*
X10259Y211460D01*
X9263Y211193D01*
X8237Y210601D01*
X7399Y209763D01*
X6807Y208737D01*
X6500Y207592D01*
Y206408D01*
X6807Y205263D01*
X7399Y204237D01*
X7840Y203796D01*
X7711Y203313D01*
X7263Y203193D01*
X6237Y202601D01*
X5399Y201763D01*
X4807Y200737D01*
X4500Y199592D01*
Y199288D01*
X4038Y199097D01*
X-11024Y214160D01*
Y223886D01*
X-10807Y224263D01*
X-10500Y225408D01*
Y226592D01*
X-10807Y227737D01*
X-11399Y228763D01*
X-12237Y229601D01*
X-13263Y230193D01*
X-14408Y230500D01*
X-15592D01*
X-15972Y230398D01*
X-16369Y230703D01*
Y308626D01*
X-16493Y309565D01*
X-16855Y310441D01*
X-17433Y311193D01*
X-19307Y313068D01*
X-20059Y313645D01*
X-20601Y313869D01*
X-20501Y314369D01*
X-10711D01*
X-9737Y313807D01*
X-8592Y313500D01*
X-7408D01*
X-6263Y313807D01*
X-5237Y314399D01*
X-4399Y315237D01*
X-3807Y316263D01*
X-3500Y317408D01*
Y318592D01*
X-3807Y319737D01*
X-3921Y319936D01*
X-3672Y320369D01*
X-1631D01*
Y225561D01*
D02*
G37*
G36*
X-41568Y301432D02*
X-41568Y301432D01*
X-41175Y301131D01*
X-41344Y300631D01*
X-42779D01*
X-103071Y360922D01*
X-103341Y361930D01*
X-103999Y363070D01*
X-104930Y364001D01*
X-106070Y364659D01*
X-106409Y364750D01*
Y365250D01*
X-106070Y365341D01*
X-105693Y365558D01*
X-41568Y301432D01*
D02*
G37*
G36*
X51399Y294237D02*
X52237Y293399D01*
X53263Y292807D01*
X54408Y292500D01*
X55592D01*
X56737Y292807D01*
X57711Y293369D01*
X74153D01*
X96429Y271093D01*
X96237Y270631D01*
X50631D01*
Y294567D01*
X51131Y294701D01*
X51399Y294237D01*
D02*
G37*
G36*
X110369Y237352D02*
Y234648D01*
X109907Y234457D01*
X109763Y234601D01*
X108737Y235193D01*
X107592Y235500D01*
X106408D01*
X105263Y235193D01*
X104289Y234631D01*
X91782D01*
X90876Y235326D01*
X89902Y235729D01*
Y236271D01*
X90876Y236674D01*
X91782Y237369D01*
X104289D01*
X105263Y236807D01*
X106408Y236500D01*
X107592D01*
X108737Y236807D01*
X109763Y237399D01*
X109907Y237543D01*
X110369Y237352D01*
D02*
G37*
G36*
X-23631Y228433D02*
X-24131Y228299D01*
X-24369Y228711D01*
Y302126D01*
X-24493Y303065D01*
X-24855Y303941D01*
X-25433Y304693D01*
X-27108Y306369D01*
X-26901Y306869D01*
X-23631D01*
Y228433D01*
D02*
G37*
G36*
X110369Y227352D02*
Y224648D01*
X109907Y224457D01*
X109763Y224601D01*
X108737Y225193D01*
X107592Y225500D01*
X106408D01*
X105263Y225193D01*
X104289Y224631D01*
X91782D01*
X90876Y225326D01*
X89902Y225729D01*
Y226271D01*
X90876Y226674D01*
X91782Y227369D01*
X104289D01*
X105263Y226807D01*
X106408Y226500D01*
X107592D01*
X108737Y226807D01*
X109763Y227399D01*
X109907Y227543D01*
X110369Y227352D01*
D02*
G37*
G36*
Y217352D02*
Y214648D01*
X109907Y214457D01*
X109763Y214601D01*
X108737Y215193D01*
X107592Y215500D01*
X106408D01*
X105263Y215193D01*
X104289Y214631D01*
X91782D01*
X90876Y215326D01*
X89902Y215729D01*
Y216271D01*
X90876Y216674D01*
X91782Y217369D01*
X104289D01*
X105263Y216807D01*
X106408Y216500D01*
X107592D01*
X108737Y216807D01*
X109763Y217399D01*
X109907Y217543D01*
X110369Y217352D01*
D02*
G37*
G36*
Y207352D02*
Y204648D01*
X109907Y204457D01*
X109763Y204601D01*
X108737Y205193D01*
X107592Y205500D01*
X106408D01*
X105263Y205193D01*
X104289Y204631D01*
X91782D01*
X90876Y205326D01*
X89902Y205729D01*
Y206271D01*
X90876Y206674D01*
X91782Y207369D01*
X104289D01*
X105263Y206807D01*
X106408Y206500D01*
X107592D01*
X108737Y206807D01*
X109763Y207399D01*
X109907Y207543D01*
X110369Y207352D01*
D02*
G37*
G36*
Y189352D02*
Y173433D01*
X109869Y173299D01*
X109601Y173763D01*
X108763Y174601D01*
X107737Y175193D01*
X106592Y175500D01*
X105408D01*
X104263Y175193D01*
X103289Y174631D01*
X91782D01*
X90876Y175326D01*
X89902Y175729D01*
Y176271D01*
X90876Y176674D01*
X91910Y177468D01*
X92704Y178502D01*
X93203Y179707D01*
X93374Y181000D01*
X93203Y182293D01*
X92704Y183498D01*
X91910Y184532D01*
X90876Y185326D01*
X89902Y185729D01*
Y186271D01*
X90876Y186674D01*
X91782Y187369D01*
X96000D01*
X96940Y187493D01*
X97816Y187855D01*
X98568Y188432D01*
X99604Y189469D01*
X104167D01*
X104237Y189399D01*
X105263Y188807D01*
X106408Y188500D01*
X107592D01*
X108737Y188807D01*
X109763Y189399D01*
X109907Y189543D01*
X110369Y189352D01*
D02*
G37*
G36*
Y168567D02*
Y163433D01*
X109869Y163299D01*
X109601Y163763D01*
X108763Y164601D01*
X107737Y165193D01*
X106592Y165500D01*
X105408D01*
X104263Y165193D01*
X103289Y164631D01*
X91782D01*
X90876Y165326D01*
X89902Y165729D01*
Y166271D01*
X90876Y166674D01*
X91782Y167369D01*
X103289D01*
X104263Y166807D01*
X105408Y166500D01*
X106592D01*
X107737Y166807D01*
X108763Y167399D01*
X109601Y168237D01*
X109869Y168701D01*
X110369Y168567D01*
D02*
G37*
G36*
X82528Y244869D02*
X82090Y244532D01*
X81296Y243498D01*
X80797Y242293D01*
X80626Y241000D01*
X80797Y239707D01*
X81296Y238502D01*
X82090Y237468D01*
X83124Y236674D01*
X84098Y236271D01*
Y235729D01*
X83124Y235326D01*
X82090Y234532D01*
X81296Y233498D01*
X80797Y232293D01*
X80626Y231000D01*
X80797Y229707D01*
X81296Y228502D01*
X82090Y227468D01*
X83124Y226674D01*
X84098Y226271D01*
Y225729D01*
X83124Y225326D01*
X82090Y224532D01*
X81296Y223498D01*
X80797Y222293D01*
X80626Y221000D01*
X80797Y219707D01*
X81296Y218502D01*
X82090Y217468D01*
X83124Y216674D01*
X84098Y216271D01*
Y215729D01*
X83124Y215326D01*
X82090Y214532D01*
X81296Y213498D01*
X80797Y212293D01*
X80626Y211000D01*
X80797Y209707D01*
X81296Y208502D01*
X82090Y207468D01*
X83124Y206674D01*
X84098Y206271D01*
Y205729D01*
X83124Y205326D01*
X82090Y204532D01*
X81296Y203498D01*
X80797Y202293D01*
X80626Y201000D01*
X80797Y199707D01*
X81296Y198502D01*
X82090Y197468D01*
X83124Y196674D01*
X84098Y196271D01*
Y195729D01*
X83124Y195326D01*
X82090Y194532D01*
X81296Y193498D01*
X80797Y192293D01*
X80626Y191000D01*
X80797Y189707D01*
X81296Y188502D01*
X82090Y187468D01*
X83124Y186674D01*
X84098Y186271D01*
Y185729D01*
X83124Y185326D01*
X82090Y184532D01*
X81296Y183498D01*
X80797Y182293D01*
X80626Y181000D01*
X80797Y179707D01*
X81296Y178502D01*
X82090Y177468D01*
X83124Y176674D01*
X84098Y176271D01*
Y175729D01*
X83124Y175326D01*
X82090Y174532D01*
X81296Y173498D01*
X80797Y172293D01*
X80626Y171000D01*
X80797Y169707D01*
X81296Y168502D01*
X82090Y167468D01*
X83124Y166674D01*
X84098Y166271D01*
Y165729D01*
X83124Y165326D01*
X82218Y164631D01*
X47000D01*
X47000Y164631D01*
X46060Y164507D01*
X45184Y164145D01*
X44433Y163568D01*
X36432Y155568D01*
X33508Y152643D01*
X33018Y152741D01*
X32704Y153498D01*
X31910Y154532D01*
X30876Y155326D01*
X29902Y155729D01*
Y156271D01*
X30876Y156674D01*
X31910Y157468D01*
X32704Y158502D01*
X33203Y159707D01*
X33373Y161000D01*
X33203Y162293D01*
X32704Y163498D01*
X31910Y164532D01*
X30876Y165326D01*
X29902Y165729D01*
Y166271D01*
X30876Y166674D01*
X31910Y167468D01*
X32704Y168502D01*
X33203Y169707D01*
X33373Y171000D01*
X33203Y172293D01*
X32704Y173498D01*
X31910Y174532D01*
X30876Y175326D01*
X29902Y175729D01*
Y176271D01*
X30876Y176674D01*
X31910Y177468D01*
X32704Y178502D01*
X33203Y179707D01*
X33373Y181000D01*
X33203Y182293D01*
X32704Y183498D01*
X31910Y184532D01*
X30876Y185326D01*
X29902Y185729D01*
Y186271D01*
X30876Y186674D01*
X31910Y187468D01*
X32704Y188502D01*
X33203Y189707D01*
X33373Y191000D01*
X33203Y192293D01*
X32704Y193498D01*
X31910Y194532D01*
X30876Y195326D01*
X29902Y195729D01*
Y196271D01*
X30876Y196674D01*
X31910Y197468D01*
X32704Y198502D01*
X33203Y199707D01*
X33373Y201000D01*
X33203Y202293D01*
X32704Y203498D01*
X31910Y204532D01*
X30876Y205326D01*
X29902Y205729D01*
Y206271D01*
X30876Y206674D01*
X31910Y207468D01*
X32704Y208502D01*
X33203Y209707D01*
X33373Y211000D01*
X33203Y212293D01*
X32704Y213498D01*
X31910Y214532D01*
X30876Y215326D01*
X29902Y215729D01*
Y216271D01*
X30876Y216674D01*
X31910Y217468D01*
X32704Y218502D01*
X33203Y219707D01*
X33373Y221000D01*
X33203Y222293D01*
X32704Y223498D01*
X31910Y224532D01*
X30876Y225326D01*
X29902Y225729D01*
Y226271D01*
X30876Y226674D01*
X31910Y227468D01*
X32704Y228502D01*
X33203Y229707D01*
X33373Y231000D01*
X33203Y232293D01*
X32704Y233498D01*
X31910Y234532D01*
X30876Y235326D01*
X30342Y235547D01*
X30442Y236047D01*
X33331D01*
Y242196D01*
X36504Y245369D01*
X82359D01*
X82528Y244869D01*
D02*
G37*
G36*
X110369Y158567D02*
Y143545D01*
X109907Y143354D01*
X109693Y143568D01*
X108941Y144145D01*
X108065Y144507D01*
X107125Y144631D01*
X91782D01*
X90876Y145326D01*
X89671Y145825D01*
X88378Y145995D01*
X85622D01*
X84329Y145825D01*
X83124Y145326D01*
X82090Y144532D01*
X81296Y143498D01*
X80797Y142293D01*
X80626Y141000D01*
X80797Y139707D01*
X81296Y138502D01*
X82090Y137468D01*
X83124Y136674D01*
X84098Y136271D01*
Y135729D01*
X83124Y135326D01*
X82090Y134532D01*
X81296Y133498D01*
X80797Y132293D01*
X80626Y131000D01*
X80797Y129707D01*
X81296Y128502D01*
X82090Y127468D01*
X83124Y126674D01*
X84098Y126271D01*
Y125729D01*
X83124Y125326D01*
X82090Y124532D01*
X81296Y123498D01*
X80797Y122293D01*
X80626Y121000D01*
X80797Y119707D01*
X81296Y118502D01*
X82090Y117468D01*
X83124Y116674D01*
X84098Y116271D01*
Y115729D01*
X83124Y115326D01*
X82090Y114532D01*
X81296Y113498D01*
X80797Y112293D01*
X80626Y111000D01*
X80797Y109707D01*
X81296Y108502D01*
X82090Y107468D01*
X83124Y106674D01*
X84098Y106271D01*
Y105729D01*
X83124Y105326D01*
X82090Y104532D01*
X81296Y103498D01*
X80797Y102293D01*
X80626Y101000D01*
X80797Y99707D01*
X81296Y98502D01*
X82090Y97468D01*
X83124Y96674D01*
X84098Y96271D01*
Y95729D01*
X83124Y95326D01*
X82090Y94532D01*
X81296Y93498D01*
X80797Y92293D01*
X80626Y91000D01*
X80797Y89707D01*
X81296Y88502D01*
X82090Y87468D01*
X83124Y86674D01*
X84098Y86271D01*
Y85729D01*
X83124Y85326D01*
X82090Y84532D01*
X81296Y83498D01*
X80797Y82293D01*
X80626Y81000D01*
X80797Y79707D01*
X81296Y78502D01*
X82090Y77468D01*
X83124Y76674D01*
X84098Y76271D01*
Y75729D01*
X83124Y75326D01*
X82090Y74532D01*
X81296Y73498D01*
X80797Y72293D01*
X80626Y71000D01*
X80797Y69707D01*
X81296Y68502D01*
X82090Y67468D01*
X83124Y66674D01*
X84098Y66271D01*
Y65729D01*
X83124Y65326D01*
X82090Y64532D01*
X81296Y63498D01*
X80797Y62293D01*
X80626Y61000D01*
X80797Y59707D01*
X81296Y58502D01*
X82090Y57468D01*
X83124Y56674D01*
X84098Y56271D01*
Y55729D01*
X83124Y55326D01*
X82090Y54532D01*
X81296Y53498D01*
X80797Y52293D01*
X80626Y51000D01*
X80797Y49707D01*
X81296Y48502D01*
X82090Y47468D01*
X83124Y46674D01*
X83369Y46572D01*
Y41487D01*
X83493Y40547D01*
X83500Y40530D01*
Y39408D01*
X83602Y39028D01*
X83297Y38631D01*
X74672D01*
X74335Y38967D01*
X73583Y39545D01*
X72707Y39907D01*
X71767Y40031D01*
X34400D01*
X34400Y40031D01*
X33460Y39907D01*
X32585Y39545D01*
X31833Y38967D01*
X20496Y27631D01*
X19711D01*
X18737Y28193D01*
X18372Y28291D01*
Y28809D01*
X18737Y28907D01*
X19763Y29499D01*
X20601Y30337D01*
X21193Y31363D01*
X21500Y32508D01*
Y33692D01*
X21193Y34837D01*
X20631Y35811D01*
Y47369D01*
X22218D01*
X23124Y46674D01*
X24329Y46175D01*
X25622Y46005D01*
X28378D01*
X29671Y46175D01*
X30876Y46674D01*
X31910Y47468D01*
X32704Y48502D01*
X33203Y49707D01*
X33373Y51000D01*
X33203Y52293D01*
X32704Y53498D01*
X31910Y54532D01*
X30876Y55326D01*
X29902Y55729D01*
Y56271D01*
X30876Y56674D01*
X31910Y57468D01*
X32704Y58502D01*
X33203Y59707D01*
X33373Y61000D01*
X33203Y62293D01*
X32704Y63498D01*
X31910Y64532D01*
X30876Y65326D01*
X29902Y65729D01*
Y66271D01*
X30876Y66674D01*
X31910Y67468D01*
X32704Y68502D01*
X33203Y69707D01*
X33373Y71000D01*
X33203Y72293D01*
X32704Y73498D01*
X31910Y74532D01*
X30876Y75326D01*
X29671Y75825D01*
X29048Y75907D01*
X28959Y76219D01*
X28975Y76421D01*
X30041Y77037D01*
X30963Y77959D01*
X31615Y79088D01*
X31953Y80348D01*
Y81652D01*
X31615Y82912D01*
X30963Y84041D01*
X30041Y84963D01*
X28975Y85579D01*
X28959Y85781D01*
X29048Y86093D01*
X29671Y86175D01*
X30876Y86674D01*
X31910Y87468D01*
X32704Y88502D01*
X33203Y89707D01*
X33373Y91000D01*
X33203Y92293D01*
X32704Y93498D01*
X31910Y94532D01*
X30876Y95326D01*
X29902Y95729D01*
Y96271D01*
X30876Y96674D01*
X31910Y97468D01*
X32704Y98502D01*
X33203Y99707D01*
X33373Y101000D01*
X33203Y102293D01*
X32704Y103498D01*
X31910Y104532D01*
X30876Y105326D01*
X29902Y105729D01*
Y106271D01*
X30876Y106674D01*
X31910Y107468D01*
X32704Y108502D01*
X33203Y109707D01*
X33373Y111000D01*
X33203Y112293D01*
X32704Y113498D01*
X31910Y114532D01*
X30876Y115326D01*
X29902Y115729D01*
Y116271D01*
X30876Y116674D01*
X31910Y117468D01*
X32704Y118502D01*
X33203Y119707D01*
X33373Y121000D01*
X33203Y122293D01*
X32704Y123498D01*
X31910Y124532D01*
X30876Y125326D01*
X29671Y125825D01*
X28378Y125996D01*
X25622D01*
X24329Y125825D01*
X23124Y125326D01*
X22218Y124631D01*
X9648D01*
X9457Y125093D01*
X9601Y125237D01*
X10193Y126263D01*
X10500Y127408D01*
Y128592D01*
X10391Y128999D01*
X10855Y129184D01*
X11433Y128432D01*
X12184Y127855D01*
X13060Y127493D01*
X14000Y127369D01*
X24059D01*
X24590Y127149D01*
X25622Y127013D01*
X25800D01*
Y131000D01*
Y134987D01*
X25622D01*
X24590Y134851D01*
X24059Y134631D01*
X14000D01*
X13060Y134507D01*
X12184Y134145D01*
X11433Y133568D01*
X10855Y132816D01*
X10493Y131940D01*
X10369Y131000D01*
X10466Y130265D01*
X9983Y130101D01*
X9631Y130711D01*
Y137352D01*
X10093Y137543D01*
X10237Y137399D01*
X11263Y136807D01*
X12408Y136500D01*
X13592D01*
X14737Y136807D01*
X15711Y137369D01*
X22218D01*
X23124Y136674D01*
X24329Y136175D01*
X25622Y136004D01*
X28378D01*
X29671Y136175D01*
X30876Y136674D01*
X31910Y137468D01*
X32704Y138502D01*
X33203Y139707D01*
X33373Y141000D01*
X33229Y142094D01*
X34038Y142903D01*
X34500Y142712D01*
Y137000D01*
X43500D01*
Y145000D01*
X42631D01*
Y151496D01*
X48504Y157369D01*
X68800D01*
Y150200D01*
X77800D01*
Y157369D01*
X82218D01*
X83124Y156674D01*
X84329Y156175D01*
X85622Y156005D01*
X88378D01*
X89671Y156175D01*
X90876Y156674D01*
X91782Y157369D01*
X103289D01*
X104263Y156807D01*
X105408Y156500D01*
X106592D01*
X107737Y156807D01*
X108763Y157399D01*
X109601Y158237D01*
X109869Y158701D01*
X110369Y158567D01*
D02*
G37*
G36*
X20771Y172094D02*
X20627Y171000D01*
X20797Y169707D01*
X21296Y168502D01*
X22090Y167468D01*
X23124Y166674D01*
X24098Y166271D01*
Y165729D01*
X23124Y165326D01*
X22090Y164532D01*
X21296Y163498D01*
X20797Y162293D01*
X20627Y161000D01*
X20797Y159707D01*
X21296Y158502D01*
X22090Y157468D01*
X23124Y156674D01*
X24098Y156271D01*
Y155729D01*
X23124Y155326D01*
X22218Y154631D01*
X7875D01*
X6935Y154507D01*
X6059Y154145D01*
X5307Y153568D01*
X4093Y152354D01*
X3631Y152545D01*
Y170289D01*
X4193Y171263D01*
X4500Y172408D01*
Y173592D01*
X4193Y174737D01*
X3601Y175763D01*
X2763Y176601D01*
X1737Y177193D01*
X592Y177500D01*
X-592D01*
X-1737Y177193D01*
X-2763Y176601D01*
X-3601Y175763D01*
X-4193Y174737D01*
X-4500Y173592D01*
Y172408D01*
X-4193Y171263D01*
X-3631Y170289D01*
Y122874D01*
X-3507Y121935D01*
X-3145Y121059D01*
X-2568Y120307D01*
X-693Y118432D01*
X59Y117855D01*
X935Y117493D01*
X1874Y117369D01*
X22218D01*
X23124Y116674D01*
X24098Y116271D01*
Y115729D01*
X23124Y115326D01*
X22090Y114532D01*
X21296Y113498D01*
X20797Y112293D01*
X20627Y111000D01*
X20797Y109707D01*
X21296Y108502D01*
X22090Y107468D01*
X23124Y106674D01*
X24098Y106271D01*
Y105729D01*
X23124Y105326D01*
X22218Y104631D01*
X9000D01*
X9000Y104631D01*
X8060Y104507D01*
X7185Y104145D01*
X6432Y103568D01*
X6432Y103568D01*
X-4907Y92228D01*
X-5369Y92419D01*
Y197527D01*
X-4951Y197816D01*
X20771Y172094D01*
D02*
G37*
G36*
X23124Y146674D02*
X24098Y146271D01*
Y145729D01*
X23124Y145326D01*
X22218Y144631D01*
X15711D01*
X14737Y145193D01*
X13592Y145500D01*
X12408D01*
X11263Y145193D01*
X10237Y144601D01*
X10093Y144457D01*
X9631Y144648D01*
Y147369D01*
X22218D01*
X23124Y146674D01*
D02*
G37*
G36*
X105369Y132545D02*
X104907Y132354D01*
X103693Y133568D01*
X102941Y134145D01*
X102065Y134507D01*
X101126Y134631D01*
X91782D01*
X90876Y135326D01*
X89902Y135729D01*
Y136271D01*
X90876Y136674D01*
X91782Y137369D01*
X105369D01*
Y132545D01*
D02*
G37*
G36*
X99369Y117352D02*
Y90433D01*
X98869Y90299D01*
X98631Y90711D01*
Y103000D01*
X98631Y103000D01*
X98507Y103940D01*
X98145Y104815D01*
X97568Y105568D01*
X93229Y109906D01*
X93374Y111000D01*
X93203Y112293D01*
X92704Y113498D01*
X91910Y114532D01*
X90876Y115326D01*
X89902Y115729D01*
Y116271D01*
X90876Y116674D01*
X91782Y117369D01*
X93289D01*
X94263Y116807D01*
X95408Y116500D01*
X96592D01*
X97737Y116807D01*
X98763Y117399D01*
X98907Y117543D01*
X99369Y117352D01*
D02*
G37*
G36*
X189369Y101496D02*
Y99703D01*
X188972Y99398D01*
X188592Y99500D01*
X187408D01*
X186263Y99193D01*
X185886Y98975D01*
X181031D01*
Y109180D01*
X181493Y109372D01*
X189369Y101496D01*
D02*
G37*
G36*
X23124Y96674D02*
X24098Y96271D01*
Y95729D01*
X23124Y95326D01*
X22218Y94631D01*
X9000D01*
X9000Y94631D01*
X8393Y94551D01*
X8160Y95025D01*
X10504Y97369D01*
X22218D01*
X23124Y96674D01*
D02*
G37*
G36*
Y86674D02*
X24329Y86175D01*
X24952Y86093D01*
X25041Y85781D01*
X25025Y85579D01*
X23959Y84963D01*
X23345Y84349D01*
X11718D01*
X10778Y84225D01*
X9902Y83863D01*
X9150Y83285D01*
X5093Y79228D01*
X4631Y79419D01*
Y81496D01*
X10504Y87369D01*
X22218D01*
X23124Y86674D01*
D02*
G37*
G36*
X23959Y77037D02*
X25025Y76421D01*
X25041Y76219D01*
X24952Y75907D01*
X24329Y75825D01*
X23124Y75326D01*
X22218Y74631D01*
X15711D01*
X14737Y75193D01*
X13592Y75500D01*
X12408D01*
X12285Y75467D01*
X12035Y75900D01*
X13222Y77087D01*
X23909D01*
X23959Y77037D01*
D02*
G37*
G36*
X10237Y67399D02*
X11263Y66807D01*
X12408Y66500D01*
X13592D01*
X14737Y66807D01*
X15711Y67369D01*
X22218D01*
X23124Y66674D01*
X24098Y66271D01*
Y65729D01*
X23124Y65326D01*
X22218Y64631D01*
X13874D01*
X12935Y64507D01*
X12059Y64145D01*
X11307Y63568D01*
X10093Y62354D01*
X9631Y62545D01*
Y67352D01*
X10093Y67543D01*
X10237Y67399D01*
D02*
G37*
G36*
X98701Y66869D02*
X98237Y66601D01*
X97399Y65763D01*
X96807Y64737D01*
X96500Y63592D01*
Y62408D01*
X96807Y61263D01*
X97268Y60464D01*
X96902Y60098D01*
X96737Y60193D01*
X95592Y60500D01*
X94408D01*
X93702Y60311D01*
X93326Y60641D01*
X93374Y61000D01*
X93203Y62293D01*
X92704Y63498D01*
X91910Y64532D01*
X90876Y65326D01*
X89902Y65729D01*
Y66271D01*
X90876Y66674D01*
X91782Y67369D01*
X98567D01*
X98701Y66869D01*
D02*
G37*
G36*
X-2631Y49581D02*
Y47711D01*
X-3193Y46737D01*
X-3500Y45592D01*
Y44408D01*
X-3193Y43263D01*
X-2601Y42237D01*
X-1763Y41399D01*
X-737Y40807D01*
X408Y40500D01*
X1592D01*
X1972Y40602D01*
X2369Y40297D01*
Y36433D01*
X1869Y36299D01*
X1601Y36763D01*
X763Y37601D01*
X-263Y38193D01*
X-1408Y38500D01*
X-2592D01*
X-3737Y38193D01*
X-4711Y37631D01*
X-9724D01*
X-10004Y37996D01*
X-10735Y38557D01*
X-11151Y38729D01*
Y39271D01*
X-10735Y39443D01*
X-10004Y40004D01*
X-9443Y40735D01*
X-9090Y41586D01*
X-8970Y42500D01*
Y43895D01*
X-3093Y49772D01*
X-2631Y49581D01*
D02*
G37*
G36*
X2369Y31567D02*
Y26433D01*
X1869Y26299D01*
X1601Y26763D01*
X763Y27601D01*
X-263Y28193D01*
X-1408Y28500D01*
X-2592D01*
X-3737Y28193D01*
X-4711Y27631D01*
X-9724D01*
X-10004Y27996D01*
X-10735Y28557D01*
X-11151Y28729D01*
Y29271D01*
X-10735Y29443D01*
X-10004Y30004D01*
X-9724Y30369D01*
X-4711D01*
X-3737Y29807D01*
X-2592Y29500D01*
X-1408D01*
X-263Y29807D01*
X763Y30399D01*
X1601Y31237D01*
X1869Y31701D01*
X2369Y31567D01*
D02*
G37*
G36*
Y21567D02*
Y17648D01*
X1907Y17457D01*
X1763Y17601D01*
X737Y18193D01*
X-408Y18500D01*
X-1592D01*
X-2737Y18193D01*
X-3711Y17631D01*
X-9724D01*
X-10004Y17996D01*
X-10735Y18557D01*
X-11151Y18729D01*
Y19271D01*
X-10735Y19443D01*
X-10004Y20004D01*
X-9724Y20369D01*
X-4711D01*
X-3737Y19807D01*
X-2592Y19500D01*
X-1408D01*
X-263Y19807D01*
X763Y20399D01*
X1601Y21237D01*
X1869Y21701D01*
X2369Y21567D01*
D02*
G37*
G36*
Y10352D02*
Y6631D01*
X-9180D01*
X-9443Y7265D01*
X-10004Y7996D01*
X-10735Y8557D01*
X-11151Y8729D01*
Y9271D01*
X-10735Y9443D01*
X-10004Y10004D01*
X-9724Y10369D01*
X-3711D01*
X-2737Y9807D01*
X-1592Y9500D01*
X-408D01*
X737Y9807D01*
X1763Y10399D01*
X1907Y10543D01*
X2369Y10352D01*
D02*
G37*
G36*
X-97996Y10004D02*
X-97265Y9443D01*
X-96850Y9271D01*
Y8729D01*
X-97265Y8557D01*
X-97996Y7996D01*
X-98276Y7631D01*
X-106125D01*
X-107065Y7507D01*
X-107941Y7145D01*
X-108693Y6567D01*
X-110568Y4693D01*
X-110869Y4300D01*
X-111369Y4470D01*
Y10369D01*
X-98276D01*
X-97996Y10004D01*
D02*
G37*
G36*
X105183Y60246D02*
X105369Y60044D01*
Y-395D01*
X105130Y-583D01*
X104631Y-360D01*
Y60108D01*
X104994Y60261D01*
X105183Y60246D01*
D02*
G37*
G36*
X20825Y-17131D02*
X20433Y-17433D01*
X-4504Y-42369D01*
X-99496D01*
X-100840Y-41025D01*
X-100607Y-40551D01*
X-100000Y-40631D01*
X-100000Y-40631D01*
X-9000D01*
X-8060Y-40507D01*
X-7185Y-40145D01*
X-6432Y-39568D01*
X16504Y-16631D01*
X20655D01*
X20825Y-17131D01*
D02*
G37*
%LPC*%
G36*
X88378Y154987D02*
X88200D01*
Y152200D01*
X92159D01*
X91831Y152993D01*
X91197Y153819D01*
X90371Y154453D01*
X89410Y154851D01*
X88378Y154987D01*
D02*
G37*
G36*
X85800D02*
X85622D01*
X84590Y154851D01*
X83629Y154453D01*
X82803Y153819D01*
X82169Y152993D01*
X81841Y152200D01*
X85800D01*
Y154987D01*
D02*
G37*
G36*
X76800Y149200D02*
X74500D01*
Y147400D01*
X76800D01*
Y149200D01*
D02*
G37*
G36*
X72100D02*
X69800D01*
Y147400D01*
X72100D01*
Y149200D01*
D02*
G37*
G36*
X92159Y149800D02*
X88200D01*
Y147013D01*
X88378D01*
X89410Y147149D01*
X90371Y147547D01*
X91197Y148181D01*
X91831Y149007D01*
X92159Y149800D01*
D02*
G37*
G36*
X85800D02*
X81841D01*
X82169Y149007D01*
X82803Y148181D01*
X83629Y147547D01*
X84590Y147149D01*
X85622Y147013D01*
X85800D01*
Y149800D01*
D02*
G37*
G36*
X76800Y145000D02*
X74500D01*
Y143200D01*
X76800D01*
Y145000D01*
D02*
G37*
G36*
X72100D02*
X69800D01*
Y143200D01*
X72100D01*
Y145000D01*
D02*
G37*
G36*
X42500Y136000D02*
X40200D01*
Y134200D01*
X42500D01*
Y136000D01*
D02*
G37*
G36*
X37800D02*
X35500D01*
Y134200D01*
X37800D01*
Y136000D01*
D02*
G37*
G36*
X28378Y134987D02*
X28200D01*
Y132200D01*
X32159D01*
X31831Y132993D01*
X31197Y133819D01*
X30371Y134453D01*
X29410Y134851D01*
X28378Y134987D01*
D02*
G37*
G36*
X42500Y131800D02*
X40200D01*
Y130000D01*
X42500D01*
Y131800D01*
D02*
G37*
G36*
X37800D02*
X35500D01*
Y130000D01*
X37800D01*
Y131800D01*
D02*
G37*
G36*
X32159Y129800D02*
X28200D01*
Y127013D01*
X28378D01*
X29410Y127149D01*
X30371Y127547D01*
X31197Y128181D01*
X31831Y129007D01*
X32159Y129800D01*
D02*
G37*
%LPD*%
G54D10*
X73300Y146200D02*
D03*
Y154200D02*
D03*
X39000Y133000D02*
D03*
Y141000D02*
D03*
G54D11*
X226000Y46874D02*
Y119000D01*
X214000Y131000D02*
X226000Y119000D01*
X205874Y131000D02*
X214000D01*
X182600Y113400D02*
Y174400D01*
Y113400D02*
X193000Y103000D01*
Y86875D02*
Y103000D01*
X6000Y75000D02*
X11718Y80718D01*
X6000Y3000D02*
Y75000D01*
X11718Y80718D02*
X26718D01*
X13000Y71000D02*
X27000D01*
X8000Y230000D02*
X27000Y211000D01*
X6126Y331000D02*
X8000Y329125D01*
Y230000D02*
Y329125D01*
X-28284Y331000D02*
X6126D01*
X15000Y233000D02*
Y336125D01*
Y233000D02*
X27000Y221000D01*
X-25284Y338000D02*
X13126D01*
X15000Y336125D01*
X125000Y-23000D02*
Y160169D01*
Y-23000D02*
X125000Y-23000D01*
X157656Y178168D02*
Y181656D01*
X158000Y182000D01*
X157000Y177513D02*
X157656Y178168D01*
X125000Y224000D02*
Y231000D01*
X177000Y167465D02*
Y172000D01*
X125000Y224000D02*
X177000Y172000D01*
X125000Y161000D02*
Y184000D01*
X-101000Y-46000D02*
X-3000D01*
X23000Y-20000D01*
X91000D01*
X90000Y-13000D02*
X101000Y-2000D01*
X-9000Y-37000D02*
X15000Y-13000D01*
X90000D01*
X91000Y-20000D02*
X109000Y-2000D01*
X-100000Y-37000D02*
X-9000D01*
X45407Y-1593D02*
X46000Y-1000D01*
X24282Y-1593D02*
X45407D01*
X23937Y-1937D02*
X24282Y-1593D01*
X192000Y55000D02*
X209000D01*
X208000Y65000D02*
X209000D01*
X196000Y77000D02*
X208000Y65000D01*
X98000Y267000D02*
X114000Y251000D01*
X47000Y267000D02*
X98000D01*
X114000Y77874D02*
Y251000D01*
X-100000Y-59000D02*
X12000D01*
X29000Y-42000D02*
X44000D01*
X12000Y-59000D02*
X29000Y-42000D01*
X-137000Y-22000D02*
X-100000Y-59000D01*
X-137000Y187000D02*
X-137000Y-22000D01*
X73300Y154200D02*
X73500Y154000D01*
X73100Y154400D02*
X73300Y154200D01*
X14000Y131000D02*
X27000D01*
X6000Y128000D02*
Y149126D01*
X7875Y151000D01*
X96000Y191000D02*
X98100Y193100D01*
X106900D02*
X107000Y193000D01*
X98100Y193100D02*
X106900D01*
X87000Y191000D02*
X96000D01*
X109000Y-2000D02*
Y63000D01*
X101000Y-2000D02*
Y63077D01*
X157000Y164000D02*
Y177513D01*
X-104000Y25875D02*
X-102126Y24000D01*
X-89000D01*
X-104000Y25875D02*
Y54465D01*
X-108000Y-29000D02*
Y2125D01*
X-106125Y4000D01*
X-89000D01*
X-115000Y12126D02*
X-113126Y14000D01*
X-89000D01*
X-115000Y-32000D02*
Y12126D01*
X132000Y225000D02*
X182600Y174400D01*
X132000Y225000D02*
Y241000D01*
X125000D02*
X132000D01*
X75657Y297000D02*
X119000Y253657D01*
Y76218D02*
Y253657D01*
X113782Y71000D02*
X119000Y76218D01*
X112126Y76000D02*
X114000Y77874D01*
X92000Y76000D02*
X112126D01*
X227000Y22000D02*
X240101Y35101D01*
X181000Y22000D02*
X227000D01*
X240101Y35101D02*
Y148899D01*
X231000Y158000D02*
X240101Y148899D01*
X133000Y45000D02*
X224126D01*
X226000Y46874D01*
X161000Y65000D02*
X184000D01*
X196000Y77000D01*
X177400Y97219D02*
X179274Y95344D01*
X177400Y97219D02*
Y167065D01*
X179274Y95344D02*
X187656D01*
X188000Y95000D01*
X194875Y85000D02*
X209000D01*
X193000Y86875D02*
X194875Y85000D01*
X198000Y95000D02*
X209000D01*
X87000Y201000D02*
X107000D01*
X35000Y249000D02*
X101000D01*
X27000Y241000D02*
X35000Y249000D01*
X177000Y167465D02*
X177400Y167065D01*
X159000Y134000D02*
X170000D01*
X87000Y241000D02*
X107000D01*
X87000Y231000D02*
X107000D01*
X87000Y211000D02*
X107000D01*
X87000Y221000D02*
X107000D01*
X55000Y297000D02*
X75657D01*
X87000Y171000D02*
X106000D01*
X73100Y154400D02*
Y154900D01*
X73000Y155000D02*
X73100Y154900D01*
X73000Y155000D02*
Y161000D01*
X87000D01*
X47000D02*
X73000D01*
X39000Y153000D02*
X47000Y161000D01*
X154656Y84344D02*
Y93344D01*
Y84344D02*
X155000Y84000D01*
X154000Y94000D02*
X154656Y93344D01*
X154000Y94000D02*
Y121976D01*
X87000Y161000D02*
X106000D01*
X87000Y121000D02*
X96000D01*
X101000Y82000D02*
Y82487D01*
X87000Y131000D02*
X101126D01*
X101000Y82487D02*
X103000Y84487D01*
Y129125D01*
X101126Y131000D02*
X103000Y129125D01*
X109000Y82000D02*
Y139126D01*
X107125Y141000D02*
X109000Y139126D01*
X87000Y71000D02*
X113782D01*
X87000Y141000D02*
X107125D01*
X73167Y35000D02*
X93125D01*
X95000Y36874D01*
Y56000D01*
X87000Y41487D02*
Y51000D01*
Y41487D02*
X88000Y40487D01*
Y40000D02*
Y40487D01*
X87000Y81000D02*
X92000Y76000D01*
X95000Y88000D02*
Y103000D01*
X87000Y111000D02*
X95000Y103000D01*
X22000Y24000D02*
X34400Y36400D01*
X71767D01*
X17000Y24000D02*
X22000D01*
X71767Y36400D02*
X73167Y35000D01*
X-19000Y24000D02*
X-2000D01*
X17000Y33100D02*
Y49125D01*
X-18000Y3000D02*
X6000D01*
X26718Y80718D02*
X27000Y81000D01*
X13874Y61000D02*
X27000D01*
X12000Y14000D02*
Y59126D01*
X13874Y61000D01*
X66000Y-1000D02*
Y27160D01*
X71656Y18344D02*
Y21504D01*
X66000Y27160D02*
Y29000D01*
Y27160D02*
X71656Y21504D01*
Y18344D02*
X72000Y18000D01*
X1000Y45000D02*
Y83000D01*
X9000Y91000D01*
X-19000Y34000D02*
X-2000D01*
X-19000Y14000D02*
X-1000D01*
X-19000Y4000D02*
X-18000Y3000D01*
X-14000Y44000D02*
X-4000Y54000D01*
Y88000D01*
X9000Y101000D01*
X-9000Y75000D02*
Y197618D01*
X-13000Y71000D02*
X-9000Y75000D01*
X-20000Y208618D02*
X-9000Y197618D01*
X9000Y91000D02*
X27000D01*
X9000Y101000D02*
X27000D01*
X18875Y51000D02*
X27000D01*
X17000Y49125D02*
X18875Y51000D01*
X-19000Y44000D02*
X-14000D01*
X0Y122874D02*
Y173000D01*
X13000Y141000D02*
X27000D01*
X7875Y151000D02*
X27000D01*
X-83000Y142000D02*
Y153000D01*
Y112000D02*
Y142000D01*
X-48487Y108000D02*
X-42487Y102000D01*
X-70000Y175000D02*
Y185000D01*
X9000Y199000D02*
X27000Y181000D01*
X-15000Y226000D02*
X-14656Y225656D01*
Y212656D02*
Y225656D01*
Y212656D02*
X27000Y171000D01*
X11000Y207000D02*
X27000Y191000D01*
X54000Y486000D02*
X75000D01*
X-94000D02*
X-59000D01*
X-31284Y324000D02*
X2000D01*
Y225561D02*
Y324000D01*
Y225561D02*
X26561Y201000D01*
X0Y122874D02*
X1874Y121000D01*
X27000D01*
X-37000Y145000D02*
Y151000D01*
X-28000Y226000D02*
Y302126D01*
X-29875Y304000D02*
X-28000Y302126D01*
X-20000Y208618D02*
Y308626D01*
X47000Y267000D02*
Y318000D01*
X-107898Y360614D02*
X-44284Y297000D01*
X-36000D01*
X-107898Y390614D02*
X-35283Y318000D01*
X-8000D01*
X-39000Y304000D02*
X-29875D01*
X-104464Y369464D02*
X-39000Y304000D01*
X-107464Y369464D02*
X-104464D01*
X-105464Y379464D02*
X-36500Y310500D01*
X-108000Y380000D02*
X-107464Y379464D01*
X-36500Y310500D02*
X-21874D01*
X-107464Y379464D02*
X-105464D01*
X-108000Y370000D02*
X-107464Y369464D01*
X-21874Y310500D02*
X-20000Y308626D01*
X-107898Y400614D02*
X-31284Y324000D01*
X-107898Y410614D02*
X-28284Y331000D01*
X16000Y486000D02*
X44000D01*
X-139000Y441000D02*
X-94000Y486000D01*
X-139000Y242685D02*
Y441000D01*
X-108000Y-29000D02*
X-100000Y-37000D01*
X-115000Y-32000D02*
X-101000Y-46000D01*
X-108000Y440000D02*
X-89000Y421000D01*
X-63000D01*
X-70000Y145000D02*
Y175000D01*
X-37000Y112000D02*
Y142000D01*
X-50000Y78000D02*
Y108000D01*
X231000Y158000D02*
Y239134D01*
X214079Y256055D02*
X231000Y239134D01*
X-107898Y420614D02*
X-25284Y338000D01*
X204905Y131970D02*
X205874Y131000D01*
X214000D02*
Y137866D01*
X204905Y131970D02*
Y137276D01*
X-137000Y216843D02*
X-130000Y223843D01*
X-137000Y187000D02*
Y216843D01*
X-139000Y242685D02*
X-130000Y233685D01*
X170000Y134000D02*
Y164000D01*
X64770Y27770D02*
X66000Y29000D01*
X46000Y-1000D02*
X47230Y230D01*
X27000Y141000D02*
X39000Y153000D01*
Y141000D02*
Y153000D01*
G54D12*
X-108000Y430000D02*
D03*
Y310000D02*
D03*
Y320000D02*
D03*
Y330000D02*
D03*
Y340000D02*
D03*
Y350000D02*
D03*
Y360000D02*
D03*
Y370000D02*
D03*
Y380000D02*
D03*
Y390000D02*
D03*
Y400000D02*
D03*
Y410000D02*
D03*
Y420000D02*
D03*
Y440000D02*
D03*
X-130000Y214000D02*
D03*
Y233685D02*
D03*
Y223843D02*
D03*
G54D13*
X87000Y51000D02*
D03*
Y61000D02*
D03*
Y71000D02*
D03*
Y81000D02*
D03*
Y91000D02*
D03*
Y101000D02*
D03*
Y111000D02*
D03*
Y121000D02*
D03*
Y131000D02*
D03*
Y141000D02*
D03*
Y151000D02*
D03*
Y161000D02*
D03*
Y171000D02*
D03*
Y181000D02*
D03*
Y191000D02*
D03*
Y201000D02*
D03*
Y211000D02*
D03*
Y221000D02*
D03*
Y231000D02*
D03*
Y241000D02*
D03*
X27000Y51000D02*
D03*
Y61000D02*
D03*
Y71000D02*
D03*
Y91000D02*
D03*
Y101000D02*
D03*
Y111000D02*
D03*
Y121000D02*
D03*
Y131000D02*
D03*
Y141000D02*
D03*
Y151000D02*
D03*
Y161000D02*
D03*
Y171000D02*
D03*
Y181000D02*
D03*
Y191000D02*
D03*
Y201000D02*
D03*
Y211000D02*
D03*
Y221000D02*
D03*
Y231000D02*
D03*
G54D14*
Y81000D02*
D03*
G54D15*
Y241000D02*
D03*
G54D16*
X204236Y137945D02*
D03*
X214079Y256055D02*
D03*
Y137945D02*
D03*
X233764D02*
D03*
X223921D02*
D03*
X233764Y256055D02*
D03*
G54D17*
X181000Y-18000D02*
D03*
Y22000D02*
D03*
X154000Y94000D02*
D03*
Y124000D02*
D03*
X134000D02*
D03*
Y94000D02*
D03*
X66000Y-1000D02*
D03*
Y29000D02*
D03*
X46000D02*
D03*
Y-1000D02*
D03*
X-50000Y78000D02*
D03*
Y108000D02*
D03*
X-70000D02*
D03*
Y78000D02*
D03*
X-103000Y112000D02*
D03*
Y142000D02*
D03*
X-83000D02*
D03*
Y112000D02*
D03*
X-70000Y145000D02*
D03*
Y175000D02*
D03*
X-50000D02*
D03*
Y145000D02*
D03*
X-17000Y142000D02*
D03*
Y112000D02*
D03*
X-37000D02*
D03*
Y142000D02*
D03*
X170000Y134000D02*
D03*
Y164000D02*
D03*
X190000D02*
D03*
Y134000D02*
D03*
X-21000Y377000D02*
D03*
Y397000D02*
D03*
X106000Y315000D02*
D03*
X126000D02*
D03*
X-35000Y457000D02*
D03*
Y437000D02*
D03*
G54D18*
X54000Y486000D02*
D03*
X44000D02*
D03*
G54D19*
X94039Y386020D02*
D03*
X27039D02*
D03*
G54D20*
X104000Y456000D02*
D03*
X94000D02*
D03*
X37000D02*
D03*
X27000D02*
D03*
G54D21*
X84000D02*
D03*
X17000D02*
D03*
G54D22*
X209000Y55000D02*
D03*
G54D23*
Y65000D02*
D03*
Y75000D02*
D03*
Y85000D02*
D03*
Y95000D02*
D03*
Y105000D02*
D03*
G54D24*
X-89000Y44000D02*
D03*
Y34000D02*
D03*
Y24000D02*
D03*
Y14000D02*
D03*
Y4000D02*
D03*
Y-6000D02*
D03*
Y-16000D02*
D03*
Y-26000D02*
D03*
X-19000D02*
D03*
Y-16000D02*
D03*
Y-6000D02*
D03*
Y4000D02*
D03*
Y14000D02*
D03*
Y24000D02*
D03*
Y34000D02*
D03*
Y44000D02*
D03*
G54D25*
X64000Y-42000D02*
D03*
G54D26*
X44000D02*
D03*
G54D27*
X13000Y71000D02*
D03*
X14000Y131000D02*
D03*
X125000Y-23000D02*
D03*
X24000Y-34000D02*
D03*
X158000Y182000D02*
D03*
X125000Y184000D02*
D03*
X23937Y-1937D02*
D03*
X192000Y55000D02*
D03*
X6000Y128000D02*
D03*
X181000Y266000D02*
D03*
X107000Y193000D02*
D03*
X117000Y5000D02*
D03*
X157000Y164000D02*
D03*
X125000Y231000D02*
D03*
X161000Y65000D02*
D03*
X196000Y77000D02*
D03*
X188000Y95000D02*
D03*
X198000D02*
D03*
X107000Y201000D02*
D03*
X101000Y249000D02*
D03*
X159000Y134000D02*
D03*
X125000Y241000D02*
D03*
X107000Y231000D02*
D03*
Y241000D02*
D03*
Y211000D02*
D03*
Y221000D02*
D03*
X106000Y171000D02*
D03*
X155000Y84000D02*
D03*
X142000Y63000D02*
D03*
X133000Y45000D02*
D03*
X125000Y161000D02*
D03*
X106000D02*
D03*
X96000Y121000D02*
D03*
X109000Y63000D02*
D03*
Y82000D02*
D03*
X101000D02*
D03*
Y63000D02*
D03*
X88000Y40000D02*
D03*
X95000Y56000D02*
D03*
Y88000D02*
D03*
X17000Y24000D02*
D03*
X-2000D02*
D03*
X17000Y33100D02*
D03*
X72000Y18000D02*
D03*
X1000Y45000D02*
D03*
X-2000Y34000D02*
D03*
X-1000Y14000D02*
D03*
X12000D02*
D03*
X-13000Y71000D02*
D03*
X0Y173000D02*
D03*
X13000Y141000D02*
D03*
X-104000Y54465D02*
D03*
X-83000Y153000D02*
D03*
X-70000Y185000D02*
D03*
X-61000Y206000D02*
D03*
X9000Y199000D02*
D03*
X-15000Y226000D02*
D03*
X11000Y207000D02*
D03*
X-93000Y174000D02*
D03*
X75000Y486000D02*
D03*
X-59000D02*
D03*
X-42000Y102000D02*
D03*
X-28000Y82000D02*
D03*
X-37000Y151000D02*
D03*
X-26000Y173000D02*
D03*
X55000Y297000D02*
D03*
X-28000Y226000D02*
D03*
X-36000Y297000D02*
D03*
X47000Y318000D02*
D03*
X-8000D02*
D03*
X16000Y486000D02*
D03*
X-95000Y238000D02*
D03*
Y251000D02*
D03*
X-63000Y421000D02*
D03*
X148000Y164000D02*
D03*
X115000Y-34000D02*
D03*
M02*
