M48
;Layer_Color=9474304
;FILE_FORMAT=2:4
INCH,TZ
;TYPE=PLATED
T01F00S00C0.0276
T02F00S00C0.0280
T03F00S00C0.0300
T04F00S00C0.0320
T05F00S00C0.0354
T06F00S00C0.0360
T07F00S00C0.0394
T08F00S00C0.0400
T09F00S00C0.0520
T10F00S00C0.0551
T11F00S00C0.1280
%
T01
X-13000Y21400
Y22384
Y23368
T02
X2400Y-3400
X11500
X12500Y-2300
X19200Y5500
X19600Y7700
X19800Y9500
X18800
X15500Y8400
X16100Y6500
X14200Y6300
X13300Y4500
X10900Y6300
X10100
X9500Y5600
X8800Y4000
X7200Y1800
X11700Y500
X10900Y8200
X10100
X9500Y8800
X9600Y12100
X15900Y13400
X2394Y-194
X1200Y1400
X-100
X-200Y2400
Y3400
X100Y4500
X1700Y3310
Y2400
X1300Y7100
X-1300
X-2800Y8200
X-4200Y10200
X600Y12800
X1400Y13100
X1300Y14100
X-10400Y5447
X-8300Y15300
X-9300Y17400
X-7000Y18500
X-6100Y20600
X-2800Y22600
X-1500
X1100Y20700
X900Y19900
X0Y17300
X-2600
X-3700Y15100
X-9500Y23800
Y25100
X-3600Y29700
X5500
X10100Y24900
X10700Y24100
Y23100
Y22100
Y21100
Y20100
Y19300
X10600Y17100
Y16100
X12500
Y18400
X15800Y18200
X15700Y16400
X14800
X12500Y23100
Y24100
X18100Y26600
X4700Y31800
X-800
X-6300Y42100
X-5900Y48600
X1600
X7500
T03
X-10800Y31000
Y32000
Y33000
Y34000
Y35000
Y36000
Y37000
Y38000
Y39000
Y40000
Y41000
Y42000
Y43000
Y44000
T04
X10600Y31500
X12600
X-2100Y37700
Y39700
X-3500Y43700
Y45700
T05
X2700Y5100
Y6100
Y7100
Y8100
Y9100
Y10100
Y11100
Y12100
Y13100
Y14100
X8700
Y13100
Y12100
Y11100
Y10100
Y9100
Y8100
Y7100
Y6100
Y5100
Y15100
Y16100
Y17100
Y18100
Y19100
Y20100
Y21100
Y22100
Y23100
Y24100
X2700
Y23100
Y22100
Y21100
Y20100
Y19100
Y18100
Y17100
Y16100
Y15100
T06
X-8900Y-2600
Y-1600
X-1900
Y-2600
Y-600
Y400
Y1400
Y2400
Y3400
Y4400
X-8900
Y3400
Y2400
Y1400
Y400
Y-600
T07
X18100Y-1800
Y2200
T08
X20900Y5500
Y6500
Y7500
Y8500
Y9500
Y10500
X19000Y13400
X17000
X15400Y12400
X13400
Y9400
X15400
X6600Y2900
X4600
Y-100
X6600
X-5000Y7800
X-7000
Y10800
X-8300Y11200
X-10300
Y14200
X-8300
X-3700
X-1700
Y11200
X-3700
X-5000Y10800
Y14500
X-7000
Y17500
X-5000
X17000Y16400
X19000
X1700Y45600
X2700
X3700
X4400Y48600
X5400
X8400Y45600
X9400
X10400
T09
X4400Y-4200
X6400
T10
X20424Y13794
X21408
X22392
X23376
Y25606
X21408
T11
X2704Y38602
X9404
M30
